<svg width="50" height="60" viewBox="0 0 50 60" fill="none" xmlns="http://www.w3.org/2000/svg">
<g clip-path="url(#clip0_737_628)">
<path d="M4.73084 28.6355C3.47016 30.0985 2.61048 31.6066 2.16984 33.3343C1.63896 35.4158 1.75707 37.4565 2.62817 39.4393C2.89036 40.0361 2.72982 40.563 2.2416 40.7826C1.73601 41.01 1.23561 40.8035 0.970186 40.1943C-0.511695 36.7926 -0.249678 33.4535 1.44015 30.2093C3.04006 27.1378 5.56476 24.934 8.447 23.1138C10.9815 21.5132 13.6416 20.0973 16.0968 18.3873C20.7592 15.1401 24.58 11.0884 26.9749 5.88301C27.7107 4.28378 28.1211 2.534 28.6475 0.842994C28.7966 0.364176 29.0264 0.0177177 29.5406 0.0007169C30.0497 -0.0161135 30.3845 0.263984 30.4684 0.779133C31.5012 7.11562 34.6959 12.4197 38.5187 17.4136C40.752 20.3311 43.2399 23.0324 45.9961 25.4632C48.3263 27.5184 49.1998 30.1092 49.18 33.0888C49.1681 34.8755 48.8691 36.6291 48.3337 38.3352C48.2425 38.6257 48.0659 38.9984 47.8261 39.1057C47.5465 39.2307 47.0429 39.2322 46.84 39.0556C46.6108 38.8562 46.4777 38.3782 46.5299 38.058C46.7177 36.9054 47.0851 35.7785 47.2294 34.6227C47.4642 32.742 47.421 30.8598 46.5596 29.1041C46.3005 28.5761 45.9337 28.1005 45.6162 27.6009C45.5596 27.6221 45.5031 27.6434 45.4465 27.6646C45.3215 28.8606 45.1969 30.0566 45.0715 31.2525C44.6941 34.8492 44.4236 38.4609 43.9139 42.0388C43.1323 47.5251 40.2459 51.7618 35.6908 54.8861C33.9528 56.0782 32.1862 57.2318 30.3977 58.3472C26.9433 60.5014 23.4175 60.573 19.9519 58.4254C17.6452 56.996 15.3418 55.531 13.2025 53.8706C9.22735 50.7856 6.98943 46.6042 6.25043 41.6821C5.71985 38.1483 5.41262 34.5811 5.00567 31.0289C4.92068 30.287 4.83531 29.5452 4.73084 28.6355ZM29.3871 5.06627C29.3656 5.1098 29.2889 5.24364 29.2312 5.38517C28.1389 8.06466 26.6398 10.5039 24.8243 12.7535C21.3108 17.107 16.9215 20.3818 12.076 23.1285C10.2319 24.1738 8.52147 25.4522 6.7445 26.6159C6.42648 26.8242 6.38231 27.0777 6.43218 27.4352C6.57726 28.4754 6.67952 29.5215 6.79829 30.5654C7.20483 34.1383 7.52823 37.7231 8.039 41.2812C8.66077 45.6126 10.5383 49.3771 13.9936 52.1424C16.1844 53.8958 18.5863 55.4016 20.9675 56.9022C23.7341 58.6457 26.5829 58.5652 29.35 56.8473C31.1579 55.7248 32.9377 54.5542 34.6927 53.351C39.2307 50.2398 41.7576 45.9399 42.2948 40.4756C42.7435 35.911 43.1963 31.3466 43.6957 26.7873C43.7655 26.1501 43.6276 25.7522 43.1759 25.3133C39.0718 21.3261 35.421 16.9692 32.6735 11.9375C31.4584 9.71221 30.4757 7.36119 29.3871 5.06627Z" fill="#307BC4"/>
<path d="M23.4656 3.4401C23.2397 3.57924 23.0585 3.68703 22.8811 3.80062C20.0514 5.6125 17.0198 6.9193 13.6695 7.40454C13.4095 7.4422 13.0828 7.33019 12.8595 7.18061C12.7529 7.10917 12.7246 6.70448 12.8229 6.59561C12.9924 6.40777 13.2775 6.26034 13.5331 6.2222C15.8874 5.87097 18.0861 5.07216 20.1838 3.97791C22.0624 2.99796 23.7947 1.80431 25.3664 0.385201C25.654 0.125548 25.95 -0.117962 26.328 0.148398C26.7398 0.438574 26.5874 0.822879 26.3979 1.17708C24.1388 5.39967 20.974 8.81566 17.0354 11.5293C12.9002 14.3784 8.29127 15.9935 3.32965 16.6679C2.89847 16.7265 2.45478 16.7206 2.37206 16.1927C2.28933 15.6648 2.68686 15.5329 3.13584 15.4733C7.05557 14.9532 10.7724 13.8094 14.2227 11.8612C17.7694 9.85855 20.7542 7.22039 23.1994 3.97481C23.2845 3.8618 23.3647 3.74486 23.4418 3.62624C23.4584 3.60054 23.4516 3.55969 23.4656 3.4401Z" fill="#307BC4"/>
<path d="M19.8795 29.4402C20.1971 29.7941 20.4605 30.072 20.7055 30.3652C20.9468 30.654 20.9905 31.0253 20.6645 31.2057C20.4536 31.3224 20.0984 31.1925 19.8109 31.1514C19.7479 31.1424 19.6824 31.05 19.6446 30.9815C18.9901 29.7946 17.9545 29.736 16.8113 30.0522C16.6711 30.091 16.4926 30.286 16.4776 30.4242C16.4321 30.8438 16.4582 31.2711 16.4564 31.6954C16.4546 32.0956 16.2943 32.3735 15.8555 32.3661C15.4221 32.3588 15.2605 32.0731 15.256 31.6804C15.25 31.1595 15.2545 30.6386 15.2545 30.1095C14.5575 30.0014 13.924 29.8829 13.2849 29.8179C13.1203 29.8012 12.8997 29.9128 12.7719 30.035C12.4068 30.3845 12.08 30.7732 11.7308 31.1396C11.452 31.4321 11.1295 31.4947 10.8231 31.2034C10.5373 30.9317 10.5864 30.6248 10.8355 30.3429C11.0885 30.0566 11.3458 29.7741 11.675 29.4078C11.3255 29.2686 11.0347 29.1616 10.7511 29.038C10.1273 28.7663 9.88702 28.3114 10.0896 27.8056C10.3067 27.2632 10.7936 27.0937 11.4598 27.357C13.8078 28.2852 16.204 28.5589 18.6642 27.8739C19.1497 27.7387 19.6136 27.5257 20.0855 27.3434C20.6746 27.1159 21.1722 27.2551 21.3986 27.7171C21.6353 28.2003 21.4162 28.7222 20.8472 29.0029C20.5606 29.1444 20.2646 29.2671 19.8795 29.4402Z" fill="#307BC4"/>
<path d="M24.8304 49.44C22.8712 49.3862 20.9369 49.0796 19.0878 48.3595C18.829 48.2587 18.452 47.9179 18.4817 47.7497C18.5272 47.4917 18.8371 47.1827 19.1065 47.0774C20.3495 46.5919 21.6239 46.1867 22.873 45.7156C23.3593 45.5322 23.8099 45.4817 24.2664 45.74C24.6883 45.9786 25.1011 45.9918 25.5288 45.7569C26.027 45.4833 26.5172 45.5366 27.0395 45.7418C28.2066 46.2004 29.4001 46.5936 30.561 47.0664C30.8331 47.1773 31.0185 47.4987 31.2439 47.7233C31.0167 47.9462 30.8289 48.2698 30.556 48.3756C28.7253 49.0849 26.8103 49.3875 24.8304 49.44ZM28.5563 47.6133C28.0911 47.4392 27.6065 47.3034 27.1654 47.0817C26.577 46.786 26.0375 46.817 25.431 47.0448C25.1109 47.1651 24.6801 47.1484 24.3457 47.045C23.5388 46.7957 21.8378 47.1282 21.1837 47.7496C23.6381 48.3734 26.0787 48.3686 28.5563 47.6133Z" fill="#307BC4"/>
<path d="M29.2547 32.7406C29.4043 33.105 29.4751 33.3039 29.5656 33.4936C30.2512 34.9317 31.1867 36.1937 32.3047 37.3258C32.4755 37.4987 32.6526 37.6654 32.8235 37.8382C33.1021 38.1199 33.193 38.4438 32.8968 38.7459C32.6018 39.0466 32.2424 38.9907 31.9849 38.697C31.1197 37.71 30.2125 36.7493 29.4454 35.6896C28.4661 34.3366 27.7921 32.8155 27.5529 31.1469C27.513 30.8688 27.7305 30.5541 27.8292 30.2563C28.1107 30.3519 28.4706 30.3683 28.6613 30.5555C30.2502 32.115 32.0757 33.2698 34.2061 33.9505C34.4516 34.0289 34.6977 34.2174 34.8511 34.4231C34.9306 34.5297 34.8687 34.8911 34.7626 34.9527C34.5454 35.0787 34.2011 35.2006 34.0039 35.113C32.6588 34.5155 31.3365 33.8667 30.0116 33.2249C29.8018 33.1233 29.6154 32.9737 29.2547 32.7406Z" fill="#307BC4"/>
<path d="M34.2388 30.7574C32.2621 30.677 30.3952 30.2676 28.6701 29.3245C28.378 29.1648 28.0592 28.8533 27.987 28.5556C27.9248 28.2991 28.1179 27.8165 28.3403 27.6978C28.6218 27.5476 29.1117 27.5394 29.4 27.6867C31.0873 28.5486 32.8681 28.9343 34.749 28.8386C35.4543 28.8028 36.1554 28.6607 36.855 28.5466C37.4847 28.4439 37.9516 28.7055 38.0627 29.2553C38.1655 29.7637 37.8634 30.2103 37.2407 30.3213C36.2458 30.4986 35.24 30.6152 34.2388 30.7574Z" fill="#307BC4"/>
<path d="M21.6583 40.1358C21.7729 39.8111 21.862 39.3195 22.1026 38.9179C23.3418 36.8499 23.9692 34.5936 24.2824 32.2313C24.3036 32.0712 24.3391 31.9129 24.3587 31.7527C24.4084 31.3472 24.6198 31.1062 25.0439 31.1647C25.4712 31.2236 25.6 31.5358 25.5518 31.9223C25.2342 34.4641 24.6417 36.9248 23.344 39.1703C22.5755 40.5003 22.7924 41.1483 24.2208 41.7495C24.5005 41.8672 24.8214 41.9444 25.0379 42.136C25.2003 42.2797 25.3388 42.6124 25.2805 42.7956C25.2215 42.9807 24.9065 43.2065 24.7049 43.2052C23.5342 43.198 22.063 42.007 21.7794 40.8904C21.7302 40.6965 21.7146 40.4942 21.6583 40.1358Z" fill="#307BC4"/>
<path d="M29.4212 41.3379C32.9423 41.4376 35.7336 42.657 37.7678 45.3954C37.8402 45.4928 37.9112 45.5914 37.979 45.692C38.2015 46.0221 38.2277 46.3626 37.8766 46.5952C37.5397 46.8184 37.2513 46.6786 36.9769 46.3833C36.2645 45.6165 35.6032 44.7675 34.7707 44.1539C33.0088 42.8554 30.9616 42.4236 28.7831 42.6038C28.6215 42.6172 28.4191 42.6953 28.3067 42.6272C28.0882 42.4948 27.7888 42.293 27.7689 42.0955C27.7495 41.9035 28.0007 41.5568 28.1996 41.4969C28.6377 41.365 29.1177 41.3709 29.4212 41.3379Z" fill="#307BC4"/>
<path d="M34.0442 48.3791C34.2942 49.1715 34.5519 49.9478 34.7784 50.733C34.8379 50.9392 34.8819 51.2198 34.7875 51.3826C34.6662 51.5916 34.408 51.8222 34.1898 51.8427C34.0221 51.8585 33.6777 51.5752 33.6644 51.4053C33.563 50.1097 33.022 49.0576 32.0958 48.1556C31.6927 47.7631 31.8976 47.2269 32.4795 47.1371C34.1 46.887 35.5481 47.2762 36.6965 48.4769C36.8531 48.6405 36.8814 49.1105 36.7591 49.3128C36.544 49.6685 36.1968 49.5435 35.8677 49.321C35.3715 48.9854 34.8413 48.6985 34.3168 48.4066C34.2259 48.356 34.0916 48.3828 34.0442 48.3791Z" fill="#307BC4"/>
<path d="M28.0783 20.2145C27.0656 20.2146 26.053 20.2109 25.0404 20.2164C24.6319 20.2186 24.2866 20.1141 24.2719 19.646C24.2561 19.1418 24.608 19.0195 25.046 19.0203C27.0915 19.024 29.137 19.0231 31.1825 19.0211C31.5985 19.0207 31.9197 19.1485 31.9179 19.6217C31.9161 20.0959 31.5921 20.2175 31.1769 20.2158C30.144 20.2117 29.1111 20.2145 28.0783 20.2145Z" fill="#307BC4"/>
<path d="M27.0734 16.7356C26.3834 16.7349 25.6933 16.737 25.0032 16.7341C24.5933 16.7325 24.2571 16.6034 24.2703 16.127C24.2832 15.6622 24.6207 15.5286 25.0276 15.5277C26.4078 15.5247 27.7879 15.5263 29.1681 15.5265C29.5796 15.5265 29.9208 15.6712 29.9345 16.1212C29.95 16.6283 29.5716 16.7372 29.1436 16.7365C28.4536 16.7354 27.7635 16.7362 27.0734 16.7356Z" fill="#307BC4"/>
<path d="M26.8701 52.3906C26.1619 52.2674 25.4849 52.1595 24.8124 52.0287C24.4192 51.9523 24.1803 51.698 24.2837 51.2927C24.3937 50.8616 24.7206 50.7685 25.1421 50.8779C26.2182 51.1571 27.2894 51.1859 28.3803 50.8896C28.593 50.8319 28.8988 51.1137 29.1616 51.2389C29.0259 51.4927 28.9448 51.901 28.7441 51.9714C28.1421 52.1824 27.4934 52.2615 26.8701 52.3906Z" fill="#307BC4"/>
<path d="M26.7266 22.0026C27.2931 22.0025 27.8595 22.0032 28.426 22.0023C28.8345 22.0016 29.1826 22.1343 29.1904 22.5878C29.1981 23.0312 28.8718 23.2128 28.4571 23.215C27.304 23.221 26.1508 23.2233 24.9977 23.2142C24.5916 23.211 24.2615 23.0518 24.2692 22.5887C24.277 22.1157 24.6266 22.006 25.0273 22.0035C25.5937 22.0001 26.1602 22.0026 26.7266 22.0026Z" fill="#307BC4"/>
<path d="M41.2966 32.1306C41.285 32.6448 40.7629 32.9375 40.3692 32.6441C39.8192 32.2341 39.2986 31.7751 38.8248 31.2806C38.7015 31.152 38.7144 30.7636 38.8207 30.5878C38.9103 30.4395 39.323 30.2978 39.4255 30.3746C40.0534 30.8444 40.637 31.3735 41.225 31.8945C41.2875 31.9499 41.2827 32.0805 41.2966 32.1306Z" fill="#307BC4"/>
<path d="M41.0875 26.239C40.9881 26.4486 40.9498 26.5904 40.8657 26.6961C40.5022 27.1526 40.133 27.6051 39.7506 28.046C39.5063 28.3277 39.1957 28.3923 38.8952 28.1465C38.5966 27.9022 38.5882 27.5914 38.8256 27.2938C39.1896 26.8377 39.5403 26.3659 39.9516 25.9553C40.1017 25.8054 40.4291 25.7245 40.6382 25.7727C40.8193 25.8144 40.9475 26.0833 41.0875 26.239Z" fill="#307BC4"/>
<path d="M40.7219 29.9071C40.4186 29.9071 40.0862 29.9837 39.8206 29.8839C39.5902 29.7974 39.2935 29.5148 39.2883 29.3122C39.2834 29.121 39.6019 28.7785 39.8102 28.7519C40.407 28.6758 41.0253 28.6816 41.6236 28.7522C41.8207 28.7754 42.14 29.1112 42.1225 29.2741C42.0984 29.4993 41.8465 29.7898 41.622 29.8806C41.3616 29.9859 41.0253 29.9051 40.722 29.9051C40.722 29.9058 40.7219 29.9064 40.7219 29.9071Z" fill="#307BC4"/>
<path d="M34.1658 20.2074C34.0036 20.2074 33.7939 20.2713 33.6891 20.1941C33.4747 20.0361 33.1986 19.8157 33.1735 19.5955C33.1543 19.4276 33.4513 19.1232 33.6645 19.0545C33.9582 18.9598 34.333 18.9526 34.6211 19.0542C34.8504 19.1351 35.1528 19.4405 35.1456 19.6362C35.1385 19.8341 34.807 20.0432 34.5838 20.1994C34.4888 20.2659 34.3077 20.2105 34.1658 20.2105C34.1658 20.2095 34.1658 20.2085 34.1658 20.2074Z" fill="#307BC4"/>
<path d="M37.183 35.6629C36.9386 35.6086 36.6433 35.6255 36.4924 35.4867C36.335 35.3419 36.1852 34.9284 36.2641 34.8417C36.4495 34.6381 36.7637 34.4834 37.0434 34.4482C37.4466 34.3975 37.956 34.3281 38.0949 34.883C38.1408 35.066 38.0187 35.3757 37.8676 35.4996C37.7057 35.6323 37.419 35.6143 37.183 35.6629Z" fill="#307BC4"/>
</g>
<defs>
<clipPath id="clip0_737_628">
<rect width="49.1803" height="60" fill="white"/>
</clipPath>
</defs>
</svg>
