<svg width="60" height="60" viewBox="0 0 60 60" fill="none" xmlns="http://www.w3.org/2000/svg">
<g clip-path="url(#clip0_662_2689)">
<path d="M19.7705 18.2969C26.0322 12.9516 34.6762 13.5024 40.1961 18.2916C40.3318 18.1718 40.4798 18.0545 40.6126 17.9219C42.3969 16.1403 44.1708 14.3482 45.9693 12.581C46.2864 12.2695 46.348 12.0466 46.1072 11.6534C45.875 11.2743 45.7605 10.8231 45.5707 10.3439C43.5448 10.3439 41.479 10.3306 39.4141 10.3668C39.2294 10.37 39.0033 10.666 38.8764 10.8746C38.0713 12.1975 36.4812 12.7533 35.0623 12.1835C33.6831 11.6297 32.868 10.1562 33.1578 8.74068C33.4743 7.19465 34.8196 6.11764 36.3664 6.2143C37.5037 6.28537 38.345 6.85698 38.928 7.83588C39.0325 8.01132 39.2329 8.25193 39.3918 8.2541C41.4584 8.28226 43.5254 8.27277 45.6013 8.27277C46.1733 6.12367 47.5144 4.77439 49.6583 4.22055C49.6583 3.19944 49.652 2.20963 49.6604 1.21995C49.6668 0.46115 50.0706 -0.00165271 50.6984 0.00248873C51.3245 0.00661673 51.7191 0.469155 51.7251 1.23235C51.733 2.22183 51.7271 3.21142 51.7271 4.21618C53.8744 4.7845 55.2166 6.1332 55.7865 8.27416C56.7957 8.27416 57.7854 8.26817 58.775 8.2761C59.5351 8.28218 59.9986 8.682 59.9983 9.30884C59.9981 9.93487 59.5339 10.3347 58.7736 10.3409C57.784 10.3489 56.7943 10.3429 55.7866 10.3429C55.2125 12.4816 53.8752 13.8357 51.7276 14.3957C51.7276 16.4641 51.7145 18.5099 51.7494 20.5549C51.7527 20.7436 52.0293 20.9808 52.234 21.1041C53.3895 21.8001 54.0116 23.148 53.7278 24.4146C53.4194 25.791 52.2908 26.7878 50.9281 26.8874C49.5737 26.9865 48.3142 26.194 47.8121 24.9267C47.2365 23.4742 47.7998 21.8693 49.2039 21.1074C49.5633 20.9124 49.6718 20.7095 49.6676 20.3169C49.6468 18.3574 49.6581 16.3975 49.6581 14.4557C49.1176 14.2189 48.6161 13.9834 48.1006 13.7844C47.974 13.7355 47.743 13.7466 47.6588 13.83C45.6706 15.7985 43.696 17.7807 41.6826 19.7968C44.1789 22.7595 45.5141 26.1393 45.5125 29.9928C45.5108 33.8344 44.1444 37.1821 41.6091 40.212C42.2804 40.8597 42.9588 41.506 43.6278 42.1619C44.2278 42.7503 44.8274 43.3399 45.4071 43.9482C45.6457 44.1986 45.8277 44.2751 46.1727 44.0899C47.8131 43.2091 49.4651 43.2445 51.1242 44.0824C51.2859 44.164 51.627 44.1153 51.7597 43.9923C52.5016 43.3037 53.2015 42.5702 53.9227 41.859C54.5052 41.2846 55.1062 41.2297 55.5629 41.6948C56.0168 42.157 55.9533 42.7486 55.3738 43.3353C54.6924 44.0253 54.013 44.7179 53.3126 45.3883C53.0422 45.6471 52.9757 45.8437 53.1708 46.2094C54.0226 47.8055 54.0216 49.433 53.1728 51.0301C52.9802 51.3925 53.0267 51.5984 53.31 51.8517C53.6789 52.1815 54.0169 52.5462 54.3659 52.8982C55.0124 53.5502 55.5014 54.2144 56.7275 53.8637C57.999 53.4999 59.3118 54.5294 59.7969 55.8052C60.2725 57.0559 59.8952 58.4505 58.8503 59.3042C57.8132 60.1515 56.3659 60.2323 55.2319 59.5062C54.0793 58.768 53.5349 57.3989 53.9356 56.0788C54.0621 55.662 53.9864 55.4182 53.6833 55.1354C53.0376 54.5331 52.4173 53.9023 51.8073 53.2635C51.5786 53.024 51.4045 52.9772 51.0922 53.1447C49.4525 54.0239 47.7915 54.0239 46.1523 53.1439C45.838 52.9752 45.6662 53.0288 45.438 53.2654C44.7349 53.9943 44.0149 54.7071 43.2917 55.4162C42.7403 55.9568 42.1478 56.0027 41.6973 55.5614C41.2453 55.1186 41.2809 54.5138 41.8151 53.9679C42.5234 53.2439 43.2328 52.5201 43.9679 51.8238C44.2382 51.5678 44.2525 51.3766 44.081 51.0528C43.2219 49.4309 43.2442 47.7989 44.07 46.1609C44.1531 45.9962 44.1726 45.6677 44.0701 45.5612C42.8006 44.2437 41.503 42.9533 40.191 41.6342C38.5202 43.0754 36.7104 44.1824 34.6388 44.7932C34.2774 44.8998 33.7435 44.8535 33.4437 44.6502C32.7478 44.1784 33.0379 43.1683 33.9354 42.8775C35.871 42.2503 37.6289 41.3063 39.0839 39.8839C43.0127 36.0432 44.4408 31.41 42.8427 26.1366C41.2407 20.8509 37.5168 17.6421 32.0683 16.7283C23.6047 15.309 15.9744 22.3553 16.5744 30.8929C16.9562 36.3256 20.6291 41.0607 25.8013 42.788C25.9645 42.8425 26.1349 42.881 26.2905 42.9521C26.8118 43.1904 27.0645 43.7221 26.8719 44.2342C26.6701 44.7708 26.2443 45.0276 25.6933 44.8858C25.0924 44.7313 24.496 44.5246 23.9337 44.2632C23.1939 43.9194 22.4669 43.536 21.776 43.1031C21.1029 42.6813 20.4823 42.1757 19.7877 41.6698C19.0047 42.4558 18.2013 43.2638 17.3962 44.0701C16.2998 45.1681 15.2141 46.2772 14.0979 47.3547C13.7592 47.6817 13.614 47.9285 13.911 48.382C14.1512 48.7487 14.2541 49.2053 14.4311 49.6556C16.4719 49.6556 18.5179 49.6688 20.563 49.6336C20.7511 49.6303 20.9863 49.3497 21.1107 49.1441C21.812 47.9846 23.1507 47.3696 24.4222 47.6562C25.7977 47.9663 26.7937 49.0983 26.8893 50.4602C26.9845 51.8167 26.1915 53.0713 24.9223 53.5721C23.4688 54.1456 21.8936 53.5657 21.0842 52.185C20.9736 51.9962 20.7462 51.7481 20.5696 51.7455C18.5243 51.7146 16.4783 51.7258 14.4051 51.7258C13.8326 53.8547 12.5022 55.2159 10.3443 55.7758C10.3443 56.7578 10.3477 57.7257 10.3433 58.6935C10.3395 59.5152 9.96558 59.9872 9.32333 59.9964C8.67756 60.0055 8.28116 59.5295 8.27657 58.7215C8.27108 57.7531 8.27527 56.7848 8.27527 55.7854C6.14518 55.2181 4.79015 53.8821 4.21874 51.7251C3.22576 51.7251 2.23639 51.7304 1.2471 51.7234C0.472944 51.7179 0.0164872 51.3383 0.00404233 50.71C-0.00878748 50.0625 0.466461 49.6623 1.27205 49.6575C2.24055 49.6518 3.20911 49.6562 4.21317 49.6562C4.7792 47.5309 6.1113 46.1724 8.27422 45.6018C8.27422 43.5364 8.28552 41.4696 8.25353 39.4035C8.25086 39.2315 7.98457 39.0149 7.79206 38.9025C6.45324 38.1202 5.86889 36.5428 6.41185 35.113C6.93669 33.7309 8.4057 32.882 9.82159 33.1428C11.3657 33.4271 12.4733 34.7614 12.405 36.3079C12.3536 37.4738 11.7726 38.3282 10.7779 38.9348C10.5848 39.0526 10.3663 39.324 10.3631 39.5276C10.3323 41.5305 10.3445 43.5341 10.3445 45.5385C10.8862 45.7791 11.4019 46.0309 11.9373 46.2298C12.0676 46.2782 12.3138 46.2043 12.4201 46.0991C14.3955 44.1446 16.3577 42.1768 18.3581 40.1764C15.8848 37.2283 14.4944 33.8726 14.489 30.0152C14.4836 26.158 15.8092 22.7753 18.324 19.7963C17.009 18.4798 15.7229 17.1827 14.4169 15.9059C14.327 15.818 14.0545 15.817 13.9243 15.8852C12.23 16.7726 10.5494 16.7715 8.84632 15.9009C8.69309 15.8225 8.35544 15.9026 8.21712 16.0313C7.49178 16.7061 6.80593 17.4232 6.10075 18.1199C5.50967 18.7039 4.92574 18.7726 4.46006 18.3249C3.97625 17.8597 4.0424 17.2558 4.65362 16.6388C5.33612 15.9499 6.0125 15.2541 6.7154 14.5865C6.97786 14.3372 7.01803 14.1496 6.84131 13.8176C5.97916 12.1982 5.9782 10.556 6.84137 8.93659C7.0185 8.60429 6.97846 8.41581 6.71493 8.16797C6.08727 7.57769 5.47272 6.97111 4.8874 6.33913C4.58912 6.01707 4.33148 5.93582 3.88788 6.07109C2.6038 6.46262 1.24394 5.91845 0.508492 4.7961C-0.226599 3.67429 -0.159338 2.21637 0.67553 1.17529C1.53874 0.0988656 2.94826 -0.282107 4.22419 0.216147C5.47253 0.703628 6.26838 1.929 6.19995 3.25861C6.19663 3.32314 6.21264 3.39955 6.18398 3.4503C5.67672 4.34873 6.26265 4.85643 6.84726 5.3885C7.32487 5.8232 7.74768 6.3192 8.23557 6.74084C8.37707 6.86314 8.70962 6.92248 8.86895 6.84172C10.5513 5.98901 12.211 5.99084 13.8926 6.84396C14.051 6.92428 14.3905 6.86367 14.5251 6.73853C15.2663 6.04921 15.966 5.31546 16.6878 4.60486C17.2656 4.03591 17.8765 3.98822 18.3282 4.4608C18.7619 4.91463 18.7089 5.50175 18.1649 6.05552C17.4551 6.77803 16.7446 7.50043 16.0133 8.2009C15.7668 8.43699 15.7459 8.61458 15.9077 8.91792C16.7841 10.5603 16.7611 12.212 15.9155 13.8681C15.8388 14.0184 15.8183 14.3201 15.9113 14.4157C17.1847 15.7248 18.4827 17.01 19.7705 18.2969ZM53.7939 9.32816C53.803 7.6364 52.4303 6.23102 50.7452 6.20685C49.0249 6.18217 47.6006 7.57281 47.591 9.28649C47.5815 10.9737 48.9598 12.3856 50.6402 12.4101C52.358 12.4352 53.7848 11.0409 53.7939 9.32816ZM11.4 14.4793C13.0821 14.4692 14.4749 13.0713 14.4802 11.3879C14.4855 9.67733 13.0687 8.26545 11.3569 8.27549C9.67473 8.28535 8.28176 9.68346 8.27725 11.3665C8.27266 13.078 9.6886 14.4895 11.4 14.4793ZM48.5996 51.7231C50.2843 51.7344 51.6986 50.3557 51.7248 48.6767C51.7515 46.9636 50.3545 45.5307 48.6465 45.5194C46.9612 45.5082 45.5472 46.8867 45.5219 48.5654C45.496 50.2796 46.8919 51.7117 48.5996 51.7231ZM9.31349 47.5887C7.62279 47.5865 6.2249 48.9658 6.20809 50.6529C6.19098 52.3717 7.58886 53.7894 9.30361 53.7922C10.9928 53.795 12.3935 52.4139 12.411 50.7285C12.4288 49.0144 11.0245 47.591 9.31349 47.5887ZM4.13124 3.07561C4.11671 2.51488 3.63594 2.05713 3.07676 2.07161C2.51534 2.08614 2.05903 2.56544 2.07304 3.1259C2.08705 3.6866 2.56785 4.14488 3.12697 4.13049C3.68641 4.11609 4.14571 3.63364 4.13124 3.07561ZM37.2377 9.2822C37.2227 8.72176 36.7414 8.26409 36.1825 8.27893C35.6217 8.29381 35.1649 8.77428 35.1795 9.33389C35.1942 9.89424 35.6757 10.3526 36.2341 10.3378C36.7933 10.323 37.2526 9.83985 37.2377 9.2822ZM50.7099 22.7626C50.1501 22.7527 49.6734 23.2135 49.6634 23.7743C49.6534 24.3336 50.1148 24.8114 50.6748 24.8215C51.2325 24.8317 51.7118 24.3683 51.7217 23.8093C51.7317 23.25 51.2702 22.7726 50.7099 22.7626ZM9.31922 35.1773C8.7582 35.1717 8.28659 35.6345 8.28062 36.1966C8.27466 36.7569 8.73857 37.2303 9.29937 37.2362C9.85821 37.242 10.333 36.7762 10.3388 36.2163C10.3447 35.6566 9.87978 35.1829 9.31922 35.1773ZM24.8228 50.665C24.8083 50.1045 24.3272 49.6466 23.7682 49.661C23.2067 49.6756 22.7506 50.1547 22.7646 50.7153C22.7786 51.2762 23.2592 51.7343 23.8185 51.7199C24.3778 51.7055 24.8373 51.2228 24.8228 50.665ZM56.8967 57.9272C57.4556 57.9291 57.9274 57.46 57.929 56.9005C57.9307 56.34 57.4634 55.87 56.9029 55.8683C56.3422 55.8666 55.8727 56.3334 55.8708 56.8944C55.869 57.4545 56.3366 57.9253 56.8967 57.9272Z" fill="#307BC4"/>
<path d="M30.4553 18.625C36.3376 18.7721 41.3757 23.9132 41.3829 29.7643C41.3836 30.3418 41.2168 30.7878 40.6389 30.9816C39.9474 31.2135 39.336 30.6915 39.3129 29.845C39.2565 27.7759 38.623 25.9067 37.3376 24.2845C35.5663 22.0488 33.2355 20.8568 30.3875 20.6978C29.4335 20.6446 28.9706 20.3246 28.9719 19.6522C28.9733 18.9536 29.483 18.6006 30.4553 18.625Z" fill="#307BC4"/>
<path d="M31.0301 44.4938C31.0237 45.0538 30.5483 45.5192 29.9895 45.5126C29.4282 45.5059 28.9654 45.0324 28.9719 44.4715C28.9785 43.9086 29.4498 43.4473 30.0117 43.4537C30.5735 43.4601 31.0366 43.9331 31.0301 44.4938Z" fill="#307BC4"/>
</g>
<defs>
<clipPath id="clip0_662_2689">
<rect width="60" height="60" fill="white"/>
</clipPath>
</defs>
</svg>
