<svg width="60" height="60" viewBox="0 0 60 60" fill="none" xmlns="http://www.w3.org/2000/svg">
<g clip-path="url(#clip0_662_2722)">
<path d="M0.5345 60C0.0556613 59.6566 -0.0784052 59.2385 0.0411381 58.6368C0.451195 56.5727 0.715268 54.4777 1.18764 52.4289C2.13029 48.3404 4.73178 45.6938 8.71685 44.3646C10.0583 43.9172 11.4264 43.5484 12.7817 43.1419C13.8103 42.8334 14.6734 43.074 15.4087 43.8575C15.5292 43.9858 15.8209 44.0566 15.9993 44.014C16.6483 43.8588 17.2946 43.6743 17.9158 43.4346C18.1158 43.3575 18.3317 43.0945 18.3732 42.8842C18.4938 42.2738 18.5483 41.6482 18.586 41.026C18.5957 40.8651 18.4863 40.6596 18.3675 40.534C15.3512 37.3456 13.5277 33.5604 12.5791 29.3243C12.5282 29.0972 12.2622 28.8498 12.0335 28.7396C9.49467 27.5159 8.2106 24.6965 9.07242 22.0613C9.27292 21.4482 9.66407 20.8963 9.93521 20.3779C8.5412 19.923 7.07381 19.4923 5.64619 18.9576C4.95654 18.6993 4.29433 18.3078 3.70211 17.868C2.14938 16.7147 2.15295 15.1635 3.67805 13.9667C4.79324 13.0915 6.10469 12.5898 7.45222 12.2143C8.90834 11.8085 10.3952 11.5117 11.8597 11.1334C12.079 11.0767 12.3413 10.8669 12.4131 10.6677C12.4702 10.5095 12.3178 10.2103 12.1698 10.058C11.4451 9.31268 10.6812 8.60477 9.95009 7.8653C9.46063 7.37022 9.44876 6.86665 9.87311 6.48238C10.2828 6.11139 10.7521 6.14724 11.2232 6.63111C11.8928 7.31885 12.5396 8.02825 13.2715 8.80872C14.4856 6.78309 15.9282 5.22563 17.9176 4.26287C17.9038 4.18899 17.9071 4.13614 17.8908 4.12927C15.4227 3.09233 12.9259 2.14242 10.2425 1.80499C9.83658 1.75394 9.41151 1.7528 9.0072 1.81047C8.33449 1.90644 8.23879 2.08996 8.44557 2.72159C8.52407 2.9614 8.63771 3.18987 8.734 3.42405C8.95729 3.96707 8.79848 4.45732 8.33185 4.66821C7.87177 4.87614 7.39358 4.72722 7.14952 4.21532C6.9165 3.72659 6.68133 3.21036 6.6026 2.68345C6.3703 1.12864 7.39202 0.075566 9.12144 0.00788968C11.1494 -0.0714686 13.0691 0.458435 14.944 1.12027C16.7581 1.76066 18.5274 2.52487 20.3226 3.21901C20.588 3.32163 20.8911 3.39987 21.1707 3.38393C23.012 3.27889 24.7361 3.60603 26.3081 4.61001C26.4453 4.69764 26.7216 4.6797 26.884 4.60529C31.0011 2.71805 35.1346 2.91467 39.2801 4.4911C39.8725 4.71639 40.1076 5.19615 39.9151 5.69169C39.7264 6.17709 39.2241 6.37256 38.6232 6.14006C36.5988 5.35672 34.5144 4.92683 32.3319 5.03342C30.6774 5.11422 29.1 5.50285 27.6265 6.25172C27.4232 6.355 27.2302 6.62899 27.1822 6.85507C26.9315 8.03662 26.7164 9.22616 26.5215 10.4181C26.4847 10.643 26.5344 10.9258 26.6475 11.1241C28.5303 14.4249 31.2324 16.7229 34.9448 17.8293C36.2022 18.204 37.5414 18.5491 38.6061 19.2572C39.8997 20.1176 41.1671 20.246 42.6031 20.0438C43.9671 19.8518 45.3411 19.7288 46.8319 19.5619C46.8319 19.0256 46.8505 18.5085 46.8289 17.9931C46.679 14.4164 45.606 11.2176 42.9068 8.69408C42.6635 8.46662 42.3898 8.27119 42.1424 8.04771C41.7026 7.65042 41.652 7.14939 41.9986 6.75208C42.3205 6.38302 42.8216 6.33599 43.2723 6.67285C44.6275 7.68579 45.7281 8.92844 46.5718 10.385C46.7682 10.7241 46.9957 10.8616 47.3932 10.9244C50.6008 11.4312 53.8183 11.9286 56.7722 13.3724C57.3627 13.6611 57.935 14.0546 58.3988 14.5151C59.3929 15.502 59.3722 16.769 58.3474 17.7237C57.8539 18.1835 57.2579 18.5688 56.6481 18.8669C54.4925 19.9204 52.1582 20.4037 49.8181 20.8532C49.4336 20.9271 49.0483 20.9967 48.5272 21.0935C48.7967 21.3393 48.9874 21.5135 49.1784 21.6872C50.9384 23.2883 52.656 24.9308 53.9808 26.9191C54.3355 27.4515 54.6518 28.0288 54.8699 28.6269C55.5504 30.4929 54.5556 31.8984 52.5454 31.9869C50.7211 32.0672 48.9953 31.5991 47.2794 31.0729C46.906 30.9583 46.5347 30.8369 46.2529 30.7474C46.1236 31.5637 46.1103 32.3977 45.8509 33.1483C45 35.6103 42.3766 37.1116 39.8099 36.7245C39.6013 36.6931 39.2896 36.7806 39.1513 36.9282C37.7154 38.4604 36.0267 39.6729 34.2409 40.7581C33.8529 40.994 33.8428 41.2493 33.8211 41.6527C33.7478 43.0131 34.4102 43.6565 35.708 43.8002C35.8618 43.8172 36.0149 43.8746 36.1592 43.9347C36.5602 44.1014 36.8452 44.0636 37.1676 43.6918C37.6894 43.0899 38.4456 42.8433 39.2113 43.0573C41.0462 43.5701 42.9084 44.0414 44.6686 44.7507C48.4103 46.2585 50.5714 49.1065 51.3141 53.0163C51.6669 54.8734 51.9628 56.7411 52.326 58.5961C52.4457 59.2072 52.3571 59.6714 51.8001 60H51.2081C50.9897 59.6518 50.6501 59.3278 50.5734 58.9512C50.196 57.1001 49.903 55.2323 49.5532 53.3754C48.8793 49.7976 46.8459 47.3387 43.3464 46.145C41.9717 45.676 40.5672 45.2923 39.1733 44.8794C38.5313 44.6893 38.3476 44.8063 38.2644 45.4526C38.0727 46.9409 37.9503 48.4405 37.6939 49.9176C37.1464 53.0721 36.3544 56.1639 34.9427 59.0659C34.778 59.4044 34.5019 59.6899 34.2774 60H33.5671C32.9235 59.4276 32.8789 59.2018 33.2576 58.4335C33.3611 58.2234 33.4734 58.017 33.5669 57.8026C34.8221 54.923 35.5769 51.9062 36.0566 48.817C36.2082 47.8404 36.3069 46.8557 36.4307 45.8685C35.6509 45.6345 34.9409 45.4216 34.205 45.2008C34.1552 45.39 34.1054 45.5359 34.0791 45.6859C33.7685 47.4584 32.7558 48.7721 31.2403 49.6707C28.4691 51.3141 25.503 51.4073 22.5347 50.3543C20.2265 49.5355 18.6391 47.9585 18.2485 45.4314C18.2381 45.364 18.1771 45.3043 18.1383 45.2385C17.4206 45.4546 16.728 45.6631 16.0208 45.876C16.0208 46.0179 16.0053 46.1341 16.0232 46.245C16.2337 47.5526 16.4384 48.8613 16.6694 50.1655C16.7472 50.605 16.6328 50.9419 16.2642 51.1762C15.6951 51.5382 15.0192 51.1874 14.8906 50.4191C14.6205 48.8058 14.3798 47.1874 14.1526 45.5676C14.0527 44.8562 13.8392 44.685 13.1403 44.8915C11.8401 45.2756 10.5311 45.6347 9.24517 46.0616C5.88203 47.1781 3.69751 49.416 2.92606 52.869C2.48452 54.8454 2.21199 56.8582 1.81565 58.8454C1.73462 59.2516 1.44068 59.6162 1.24488 60H0.5345ZM32.7721 22.1545L32.7432 22.3681C33.4685 22.7785 34.2038 23.173 34.9157 23.6053C35.3611 23.8758 35.471 24.361 35.2412 24.7756C35.0132 25.1868 34.5395 25.3428 34.0669 25.1528C33.9402 25.1018 33.824 25.0244 33.7048 24.956C32.2736 24.1351 30.8481 23.3041 29.4067 22.5011C29.147 22.3564 28.8254 22.2705 28.5265 22.2524C25.8903 22.093 23.251 21.9808 20.6163 21.801C19.1047 21.6978 17.5992 21.5026 16.0928 21.3323C15.7093 21.289 15.4843 21.3375 15.385 21.7807C15.1766 22.7108 14.8784 23.6208 14.657 24.5485C14.3388 25.8818 14.0739 27.2457 14.3121 28.6051C14.9792 32.411 16.5991 35.8021 19.133 38.7387C21.6648 41.6729 24.8325 42.5244 28.5588 41.4116C31.7529 40.4577 34.4784 38.7128 36.966 36.5649C38.0685 35.6129 38.9142 34.4594 39.4321 33.1085C39.9547 31.7456 40.4006 30.3532 40.8454 28.9628C40.8879 28.83 40.7289 28.5334 40.586 28.4594C39.7149 28.0082 38.8191 27.6038 37.936 27.175C37.2708 26.852 37.0453 26.3948 37.2795 25.8803C37.514 25.3649 38.059 25.2573 38.7525 25.5899C39.4079 25.9042 40.0623 26.2205 40.7187 26.5328C40.8834 26.6112 41.0539 26.6775 41.3018 26.7837C41.3008 24.9836 40.7451 23.5039 39.6418 22.2299C39.5306 22.1016 39.2634 22.0528 39.0702 22.0562C38.3019 22.0697 37.5346 22.1399 36.7664 22.1498C35.4352 22.1668 34.1036 22.1545 32.7721 22.1545ZM14.7012 9.98454C16.5235 11.3993 18.3121 12.7731 20.0797 14.173C20.4299 14.4504 20.7015 14.4586 21.079 14.2448C22.5971 13.3848 23.6385 12.0735 24.5939 10.6767C24.6561 10.5858 24.673 10.4598 24.6944 10.3471C24.926 9.12312 25.1464 7.89695 25.3885 6.67499C25.4598 6.31481 25.3541 6.10154 25.0272 5.9225C23.7361 5.21547 22.3489 4.99483 20.9152 5.2037C17.9957 5.62905 16.097 7.40701 14.7012 9.98454ZM20.3062 42.1098C20.2246 42.6866 20.1505 43.1797 20.0857 43.6741C19.7693 46.0882 20.7296 47.7703 23.0338 48.6563C25.1774 49.4805 27.3579 49.4547 29.489 48.5992C30.6943 48.1154 31.6417 47.2926 32.1285 46.058C32.6593 44.7119 32.1825 43.3866 32.0653 41.9746C30.1168 42.8534 28.2092 43.4887 26.1564 43.6276C24.0633 43.7691 22.1391 43.2913 20.3062 42.1098ZM48.6852 19.2746C49.7166 19.063 50.7593 18.8799 51.7859 18.6315C53.4458 18.2299 55.1122 17.8217 56.5752 16.8936C57.5287 16.2887 57.5149 15.8984 56.5603 15.2789C56.3148 15.1196 56.0582 14.9641 55.7858 14.8608C54.889 14.5208 54.0016 14.1327 53.0758 13.8963C51.3364 13.4522 49.5728 13.1012 47.7872 12.7044C48.0362 13.8732 48.3198 14.9048 48.4619 15.9551C48.6072 17.0289 48.6137 18.121 48.6852 19.2746ZM22.2904 15.782C23.7637 16.7606 25.3589 17.7007 26.8152 18.8181C28.5882 20.1786 30.4973 20.7447 32.7288 20.5192C34.0179 20.389 35.3315 20.4956 36.634 20.4956C36.6599 20.3987 36.6857 20.3018 36.7115 20.205C31.9953 19.071 27.9787 16.9313 25.5366 12.6864C24.4361 13.7359 23.3929 14.7307 22.2904 15.782ZM44.5926 28.1492C44.5915 28.212 44.5904 28.2749 44.5893 28.3378C46.4279 28.8906 48.2561 29.4819 50.1105 29.9769C50.8401 30.1716 51.6287 30.2175 52.3895 30.2119C53.3032 30.2053 53.4843 29.8916 53.1185 29.0676C52.8985 28.572 52.6598 28.0535 52.3052 27.6529C51.0097 26.189 49.6632 24.7692 48.3315 23.3368C48.233 23.231 48.0989 23.1577 47.9554 23.0497C47.2785 25.0803 46.3474 26.8805 44.5926 28.1492ZM12.1661 18.9473C11.3475 16.9483 11.4584 14.9994 11.7299 12.9861C11.1125 13.1193 10.5558 13.2222 10.0082 13.3606C8.25434 13.8036 6.49079 14.2334 4.95248 15.2373C4.14363 15.7651 4.14942 16.06 4.95868 16.5925C5.33359 16.8392 5.73024 17.0787 6.15098 17.2272C7.35213 17.651 8.56301 18.0521 9.78523 18.4117C10.5307 18.6309 11.3041 18.757 12.1661 18.9473ZM13.9816 11.6881C13.3199 13.7236 13.008 15.7174 13.6582 17.7478C13.8194 18.2512 14.1729 18.6942 14.396 19.0903C15.7732 17.7083 17.0489 16.4281 18.3388 15.1338C16.9753 14.0555 15.5074 12.8947 13.9816 11.6881ZM25.8855 20.4305C25.733 20.2503 25.7049 20.1977 25.661 20.1679C23.94 19.0018 22.2242 17.8279 20.4855 16.688C20.3048 16.5696 19.9454 16.5654 19.7407 16.6602C18.3846 17.2885 17.4556 18.3898 16.4216 19.6665C19.6327 19.9257 22.6851 20.1721 25.8855 20.4305ZM43.1514 26.9286C45.23 25.6022 45.9593 23.6154 46.5315 21.3988C44.8772 21.5715 43.3144 21.7347 41.669 21.9065C42.6635 23.4698 43.1071 25.0839 43.1514 26.9286ZM13.6672 20.9959C12.6367 20.9107 11.7015 21.0987 11.0954 21.9644C9.88117 23.6988 11.0169 26.2949 12.358 26.8156C12.7884 24.9024 13.221 22.9794 13.6672 20.9959ZM42.6728 29.4295C41.9932 31.2986 41.3258 33.1343 40.6495 34.9942C42.1669 34.9241 43.3258 34.2551 44.0281 32.8812C44.7698 31.4301 44.2167 30.0539 42.6728 29.4295Z" fill="#307BC4"/>
<path d="M18.0572 60.0001C17.8365 59.6234 17.5514 59.2692 17.4069 58.8657C16.9225 57.5134 16.4807 56.1458 16.0381 54.7791C15.8345 54.1504 16.0582 53.6876 16.6042 53.5233C17.1117 53.3707 17.5261 53.6313 17.739 54.2538C18.2481 55.7422 18.7355 57.2381 19.2642 58.7196C19.4786 59.3205 19.2157 59.6811 18.7676 60.0001L18.0572 60.0001Z" fill="#307BC4"/>
<path d="M23.8446 35.0166C25.4429 35.1503 26.6458 35.591 27.4549 36.7693C27.8592 37.3582 27.7892 37.8993 27.3113 38.2015C26.8558 38.4895 26.3739 38.3346 25.9772 37.7725C25.4014 36.9567 24.1851 36.6147 23.2387 37.0027C22.6041 37.2628 22.0948 37.1227 21.8848 36.6301C21.6781 36.1454 21.8761 35.6543 22.4761 35.4085C22.9755 35.2039 23.5197 35.1064 23.8446 35.0166Z" fill="#307BC4"/>
<path d="M20.6706 26.8353C20.1578 26.7996 19.8155 26.584 19.7243 26.0877C19.6356 25.6055 19.9017 25.1779 20.4069 25.0889C21.5494 24.8876 22.697 24.7079 23.8483 24.5655C24.3318 24.5058 24.6855 24.7674 24.7931 25.2605C24.8979 25.7411 24.6528 26.181 24.1395 26.278C22.9815 26.497 21.8118 26.6558 20.6706 26.8353Z" fill="#307BC4"/>
<path d="M31.4515 26.6162C31.7741 26.7883 32.0209 26.8725 32.2075 27.0277C33.0072 27.693 33.7968 28.371 34.575 29.0609C35.0586 29.4897 35.1136 29.9939 34.7603 30.393C34.4036 30.796 33.8961 30.8076 33.4028 30.3928C32.5915 29.7105 31.7642 29.0421 31.009 28.3025C30.7942 28.0921 30.6801 27.6264 30.7501 27.3312C30.8138 27.0625 31.1901 26.8663 31.4515 26.6162Z" fill="#307BC4"/>
<path d="M27.3499 32.9054C26.3786 32.8444 25.4205 32.598 24.5671 32.0299C24.0542 31.6886 23.9181 31.1726 24.2108 30.735C24.4932 30.3127 24.9588 30.2859 25.5145 30.507C26.1566 30.7624 26.8319 30.9649 27.5117 31.0909C28.1685 31.2127 28.5911 31.5162 28.5712 32.0321C28.5503 32.5732 28.0854 32.9182 27.3499 32.9054Z" fill="#307BC4"/>
</g>
<defs>
<clipPath id="clip0_662_2722">
<rect width="59.1304" height="60" fill="white"/>
</clipPath>
</defs>
</svg>
