<svg width="154" height="85" viewBox="0 0 154 85" fill="none" xmlns="http://www.w3.org/2000/svg">
<path d="M11.199 76.9443C6.45533 67.1012 7.30455 56.2527 2.79459 46.7422C2.68678 46.5146 1.9793 46.5724 0.814961 46.3674C0.614355 48.3022 0.0477034 50.2305 0.288576 52.051C1.39958 60.447 2.39208 68.8838 4.09021 77.1693C5.69867 85.0173 9.53223 86.5652 16.7386 82.9569C23.3179 79.6628 29.8295 76.2315 36.3415 72.8045C37.0383 72.4378 37.5385 71.6965 39.0493 70.2467C29.5285 68.9554 23.0934 75.0157 14.3639 76.7595C17.6189 69.9161 20.1614 63.7567 23.3719 57.9688C34.221 38.4105 48.6047 22.2762 69.2349 12.6563C96.5046 -0.0596467 125.62 5.48184 146.506 27.1401C146.661 27.3007 146.802 27.4779 146.972 27.6198C148.679 29.0428 150.149 32.6225 152.729 29.8145C155.044 27.2949 151.88 25.478 150.288 23.8466C124.963 -2.10514 89.5298 -6.40034 58.7367 12.8308C38.944 25.192 25.5981 42.9961 16.2984 64.09C14.4401 68.3048 12.8908 72.656 11.199 76.9443Z" fill="white"/>
</svg>
