<svg width="39" height="30" viewBox="0 0 39 30" fill="none" xmlns="http://www.w3.org/2000/svg">
<path d="M5.44804 2.39293C3.48881 4.6116 2.91424 7.50279 1.04037 9.65185C0.995556 9.70331 0.815314 9.63632 0.496659 9.60432C0.586316 9.08508 0.580042 8.54068 0.776435 8.08363C1.68221 5.97578 2.56007 3.8486 3.61084 1.81266C4.60612 -0.115794 5.71934 -0.238129 7.33373 1.23155C8.80768 2.57331 10.2539 3.94586 11.7005 5.3173C11.8553 5.46406 11.9313 5.69407 12.2189 6.18298C9.64149 5.82109 8.40815 3.76863 6.25976 2.67336C6.60641 4.69671 6.81745 6.4894 7.22994 8.23426C8.62388 14.1304 11.1908 19.393 15.8645 23.4153C22.0424 28.7321 30.0411 29.4234 37.0767 25.3083C37.1289 25.2778 37.1786 25.2419 37.2334 25.2174C37.7828 24.9716 38.4289 24.146 38.8957 25.0675C39.3145 25.8944 38.356 26.136 37.8211 26.4446C29.3132 31.3537 19.7583 29.8737 13.1397 22.5995C8.88553 17.9239 6.71181 12.3019 5.83457 6.11905C5.65926 4.88364 5.57453 3.6353 5.44804 2.39293Z" fill="white"/>
</svg>
