<svg width="57" height="57" viewBox="0 0 57 57" fill="none" xmlns="http://www.w3.org/2000/svg">
<mask id="path-1-inside-1_763_545" fill="white">
<path d="M55.2577 27.2463C54.887 24.4041 53.0501 22.1575 50.4639 21.3849C47.5661 20.5187 44.3732 21.5942 41.8026 24.2683C39.9668 22.3601 37.8148 21.2658 35.6796 21.111C35.6295 17.8792 32.9865 15.2652 29.7424 15.2652H22.3179C24.0413 14.0027 25.1624 11.9654 25.1624 9.66982V3.42543C25.1624 3.4232 25.1624 3.42098 25.1624 3.41875C25.1624 3.4143 25.1624 3.41096 25.1624 3.4065C25.1624 2.4168 24.0179 1.6709 22.5005 1.6709C20.9831 1.6709 19.8387 2.4168 19.8387 3.4065C19.8387 3.41652 19.8398 3.42543 19.8398 3.43545C19.8398 3.44213 19.8387 3.44881 19.8387 3.4566V6.24537C19.8387 8.31162 18.1576 9.99379 16.0903 9.99379H15.7351C12.4598 9.99379 9.79576 12.6579 9.79576 15.9331C9.79576 17.7879 10.6508 19.4467 11.9878 20.5366H7.60928C4.334 20.5354 1.66992 23.2006 1.66992 26.4748C1.66992 29.671 4.20932 32.285 7.37549 32.4086C6.05291 33.4907 5.20236 35.1328 5.20236 36.9541C5.20236 40.1938 7.8375 42.8289 11.0771 42.8289H21.7524C20.2105 44.0123 19.2141 45.8726 19.2141 47.9611V53.5932C19.2141 54.5829 20.3263 55.3288 21.8014 55.3288C23.2765 55.3288 24.3887 54.5829 24.3887 53.5932V51.4947C24.3887 49.9071 25.6812 48.6146 27.2687 48.6146H33.954C36.7405 48.6146 39.1697 46.6931 39.8967 44.0791C40.401 44.412 40.9198 44.7426 41.4541 45.0711C41.561 45.1367 41.6824 45.169 41.8037 45.169C41.9251 45.169 42.0453 45.1367 42.1533 45.0711C47.0083 42.0941 50.602 38.899 52.8352 35.5725C54.7567 32.7092 55.595 29.8302 55.2577 27.2463ZM22.4994 3.00572C23.2598 3.00572 23.7196 3.27291 23.8153 3.40539C23.7196 3.53787 23.2598 3.80506 22.4994 3.80506C21.739 3.80506 21.2793 3.53787 21.1835 3.40539C21.2804 3.27291 21.7402 3.00572 22.4994 3.00572ZM3.00586 26.4748C3.00586 23.9365 5.071 21.8714 7.60928 21.8714H15.7351H29.3583C29.7268 21.8714 30.0263 21.5719 30.0263 21.2034C30.0263 20.8349 29.7268 20.5354 29.3583 20.5354H15.7351C13.1968 20.5354 11.1317 18.4703 11.1317 15.932C11.1317 13.3937 13.1968 11.3286 15.7351 11.3286H16.0903C18.8935 11.3286 21.1746 9.0475 21.1746 6.24426V4.92502C21.5609 5.06307 22.0107 5.14211 22.5005 5.14211C22.9904 5.14211 23.4401 5.06418 23.8264 4.92613V9.66982C23.8264 12.7547 21.316 15.2652 18.2311 15.2652C17.8626 15.2652 17.5631 15.5646 17.5631 15.9331C17.5631 16.3016 17.8626 16.6011 18.2311 16.6011H29.7424C32.2584 16.6011 34.3091 18.6306 34.3447 21.1388C33.9395 21.1856 33.5376 21.2669 33.1413 21.3849C31.0104 22.0217 29.3884 23.6604 28.677 25.8079H7.88648C7.51799 25.8079 7.21852 26.1074 7.21852 26.4759C7.21852 26.8444 7.51799 27.1439 7.88648 27.1439H28.3631C28.3586 27.1784 28.3519 27.2129 28.3475 27.2474C28.1883 28.4698 28.2918 29.7579 28.6492 31.0793H7.60928C5.071 31.0793 3.00586 29.0142 3.00586 26.4748ZM21.8014 53.994C21.0733 53.994 20.6313 53.719 20.5567 53.5943C20.6313 53.4696 21.0733 53.1947 21.8014 53.1947C22.5295 53.1947 22.9714 53.4696 23.046 53.5943C22.9714 53.719 22.5295 53.994 21.8014 53.994ZM33.9529 47.2798H27.2676C24.9431 47.2798 23.0516 49.1713 23.0516 51.4958V52.0613C22.6853 51.9311 22.2601 51.8587 21.8003 51.8587C21.3405 51.8587 20.9163 51.9311 20.5489 52.0613V47.9622C20.5489 45.1323 22.8512 42.83 25.6812 42.83H33.9373C34.3058 42.83 34.6052 42.5305 34.6052 42.162C34.6052 41.7936 34.3058 41.4941 33.9373 41.4941H11.0783C8.57561 41.4941 6.53941 39.4579 6.53941 36.9552C6.53941 34.5038 8.5333 32.4676 10.9847 32.4175C10.9892 32.4175 10.9925 32.4164 10.997 32.4164H29.0934C29.5031 33.4606 30.0642 34.5194 30.7733 35.5748C30.9336 35.813 31.1006 36.0501 31.2754 36.2873H11.7139C11.3454 36.2873 11.046 36.5867 11.046 36.9552C11.046 37.3237 11.3454 37.6232 11.7139 37.6232H32.3341C33.994 39.5659 36.126 41.4551 38.7099 43.2731C38.3136 45.5475 36.2952 47.2798 33.9529 47.2798ZM41.8026 43.7173C33.5387 38.5606 29.011 32.4865 29.6723 27.42C29.9784 25.0721 31.4179 23.2953 33.5242 22.6652C34.0542 22.5071 34.5986 22.4291 35.1496 22.4291C37.2682 22.4291 39.4747 23.5792 41.2972 25.6966C41.4241 25.8436 41.6089 25.9293 41.8037 25.9293C41.9985 25.9293 42.1833 25.8447 42.3103 25.6966C44.6058 23.0303 47.5115 21.897 50.0832 22.6652C52.1884 23.2942 53.6279 25.0721 53.9351 27.42C54.5942 32.4865 50.0665 38.5606 41.8026 43.7173ZM45.6568 31.1862H43.7497V29.2792C43.7497 28.9107 43.4503 28.6112 43.0818 28.6112H40.5234C40.1549 28.6112 39.8555 28.9107 39.8555 29.2792V31.1862H37.9484C37.5799 31.1862 37.2804 31.4857 37.2804 31.8542V34.4125C37.2804 34.781 37.5799 35.0805 37.9484 35.0805H39.8555V36.9875C39.8555 37.356 40.1549 37.6555 40.5234 37.6555H43.0818C43.4503 37.6555 43.7497 37.356 43.7497 36.9875V35.0805H45.6568C46.0253 35.0805 46.3247 34.781 46.3247 34.4125V31.8542C46.3247 31.4857 46.0253 31.1862 45.6568 31.1862ZM44.9888 33.7445H43.0818C42.7133 33.7445 42.4138 34.044 42.4138 34.4125V36.3195H41.1914V34.4125C41.1914 34.044 40.8919 33.7445 40.5234 33.7445H38.6164V32.5221H40.5234C40.8919 32.5221 41.1914 32.2227 41.1914 31.8542V29.9471H42.4138V31.8542C42.4138 32.2227 42.7133 32.5221 43.0818 32.5221H44.9888V33.7445Z"/>
</mask>
<path d="M55.2577 27.2463C54.887 24.4041 53.0501 22.1575 50.4639 21.3849C47.5661 20.5187 44.3732 21.5942 41.8026 24.2683C39.9668 22.3601 37.8148 21.2658 35.6796 21.111C35.6295 17.8792 32.9865 15.2652 29.7424 15.2652H22.3179C24.0413 14.0027 25.1624 11.9654 25.1624 9.66982V3.42543C25.1624 3.4232 25.1624 3.42098 25.1624 3.41875C25.1624 3.4143 25.1624 3.41096 25.1624 3.4065C25.1624 2.4168 24.0179 1.6709 22.5005 1.6709C20.9831 1.6709 19.8387 2.4168 19.8387 3.4065C19.8387 3.41652 19.8398 3.42543 19.8398 3.43545C19.8398 3.44213 19.8387 3.44881 19.8387 3.4566V6.24537C19.8387 8.31162 18.1576 9.99379 16.0903 9.99379H15.7351C12.4598 9.99379 9.79576 12.6579 9.79576 15.9331C9.79576 17.7879 10.6508 19.4467 11.9878 20.5366H7.60928C4.334 20.5354 1.66992 23.2006 1.66992 26.4748C1.66992 29.671 4.20932 32.285 7.37549 32.4086C6.05291 33.4907 5.20236 35.1328 5.20236 36.9541C5.20236 40.1938 7.8375 42.8289 11.0771 42.8289H21.7524C20.2105 44.0123 19.2141 45.8726 19.2141 47.9611V53.5932C19.2141 54.5829 20.3263 55.3288 21.8014 55.3288C23.2765 55.3288 24.3887 54.5829 24.3887 53.5932V51.4947C24.3887 49.9071 25.6812 48.6146 27.2687 48.6146H33.954C36.7405 48.6146 39.1697 46.6931 39.8967 44.0791C40.401 44.412 40.9198 44.7426 41.4541 45.0711C41.561 45.1367 41.6824 45.169 41.8037 45.169C41.9251 45.169 42.0453 45.1367 42.1533 45.0711C47.0083 42.0941 50.602 38.899 52.8352 35.5725C54.7567 32.7092 55.595 29.8302 55.2577 27.2463ZM22.4994 3.00572C23.2598 3.00572 23.7196 3.27291 23.8153 3.40539C23.7196 3.53787 23.2598 3.80506 22.4994 3.80506C21.739 3.80506 21.2793 3.53787 21.1835 3.40539C21.2804 3.27291 21.7402 3.00572 22.4994 3.00572ZM3.00586 26.4748C3.00586 23.9365 5.071 21.8714 7.60928 21.8714H15.7351H29.3583C29.7268 21.8714 30.0263 21.5719 30.0263 21.2034C30.0263 20.8349 29.7268 20.5354 29.3583 20.5354H15.7351C13.1968 20.5354 11.1317 18.4703 11.1317 15.932C11.1317 13.3937 13.1968 11.3286 15.7351 11.3286H16.0903C18.8935 11.3286 21.1746 9.0475 21.1746 6.24426V4.92502C21.5609 5.06307 22.0107 5.14211 22.5005 5.14211C22.9904 5.14211 23.4401 5.06418 23.8264 4.92613V9.66982C23.8264 12.7547 21.316 15.2652 18.2311 15.2652C17.8626 15.2652 17.5631 15.5646 17.5631 15.9331C17.5631 16.3016 17.8626 16.6011 18.2311 16.6011H29.7424C32.2584 16.6011 34.3091 18.6306 34.3447 21.1388C33.9395 21.1856 33.5376 21.2669 33.1413 21.3849C31.0104 22.0217 29.3884 23.6604 28.677 25.8079H7.88648C7.51799 25.8079 7.21852 26.1074 7.21852 26.4759C7.21852 26.8444 7.51799 27.1439 7.88648 27.1439H28.3631C28.3586 27.1784 28.3519 27.2129 28.3475 27.2474C28.1883 28.4698 28.2918 29.7579 28.6492 31.0793H7.60928C5.071 31.0793 3.00586 29.0142 3.00586 26.4748ZM21.8014 53.994C21.0733 53.994 20.6313 53.719 20.5567 53.5943C20.6313 53.4696 21.0733 53.1947 21.8014 53.1947C22.5295 53.1947 22.9714 53.4696 23.046 53.5943C22.9714 53.719 22.5295 53.994 21.8014 53.994ZM33.9529 47.2798H27.2676C24.9431 47.2798 23.0516 49.1713 23.0516 51.4958V52.0613C22.6853 51.9311 22.2601 51.8587 21.8003 51.8587C21.3405 51.8587 20.9163 51.9311 20.5489 52.0613V47.9622C20.5489 45.1323 22.8512 42.83 25.6812 42.83H33.9373C34.3058 42.83 34.6052 42.5305 34.6052 42.162C34.6052 41.7936 34.3058 41.4941 33.9373 41.4941H11.0783C8.57561 41.4941 6.53941 39.4579 6.53941 36.9552C6.53941 34.5038 8.5333 32.4676 10.9847 32.4175C10.9892 32.4175 10.9925 32.4164 10.997 32.4164H29.0934C29.5031 33.4606 30.0642 34.5194 30.7733 35.5748C30.9336 35.813 31.1006 36.0501 31.2754 36.2873H11.7139C11.3454 36.2873 11.046 36.5867 11.046 36.9552C11.046 37.3237 11.3454 37.6232 11.7139 37.6232H32.3341C33.994 39.5659 36.126 41.4551 38.7099 43.2731C38.3136 45.5475 36.2952 47.2798 33.9529 47.2798ZM41.8026 43.7173C33.5387 38.5606 29.011 32.4865 29.6723 27.42C29.9784 25.0721 31.4179 23.2953 33.5242 22.6652C34.0542 22.5071 34.5986 22.4291 35.1496 22.4291C37.2682 22.4291 39.4747 23.5792 41.2972 25.6966C41.4241 25.8436 41.6089 25.9293 41.8037 25.9293C41.9985 25.9293 42.1833 25.8447 42.3103 25.6966C44.6058 23.0303 47.5115 21.897 50.0832 22.6652C52.1884 23.2942 53.6279 25.0721 53.9351 27.42C54.5942 32.4865 50.0665 38.5606 41.8026 43.7173ZM45.6568 31.1862H43.7497V29.2792C43.7497 28.9107 43.4503 28.6112 43.0818 28.6112H40.5234C40.1549 28.6112 39.8555 28.9107 39.8555 29.2792V31.1862H37.9484C37.5799 31.1862 37.2804 31.4857 37.2804 31.8542V34.4125C37.2804 34.781 37.5799 35.0805 37.9484 35.0805H39.8555V36.9875C39.8555 37.356 40.1549 37.6555 40.5234 37.6555H43.0818C43.4503 37.6555 43.7497 37.356 43.7497 36.9875V35.0805H45.6568C46.0253 35.0805 46.3247 34.781 46.3247 34.4125V31.8542C46.3247 31.4857 46.0253 31.1862 45.6568 31.1862ZM44.9888 33.7445H43.0818C42.7133 33.7445 42.4138 34.044 42.4138 34.4125V36.3195H41.1914V34.4125C41.1914 34.044 40.8919 33.7445 40.5234 33.7445H38.6164V32.5221H40.5234C40.8919 32.5221 41.1914 32.2227 41.1914 31.8542V29.9471H42.4138V31.8542C42.4138 32.2227 42.7133 32.5221 43.0818 32.5221H44.9888V33.7445Z" fill="#307BC4" stroke="#307BC4" stroke-width="3" mask="url(#path-1-inside-1_763_545)"/>
</svg>
