<svg width="66" height="60" viewBox="0 0 66 60" fill="none" xmlns="http://www.w3.org/2000/svg">
<path d="M65.2735 31.1991C64.9651 32.0126 64.3445 32.5225 63.6371 32.9837C59.8961 35.4225 55.7854 36.7681 51.3623 37.2102C50.982 37.2482 50.5903 37.3566 50.2227 37.3029C48.994 37.1231 48.1531 37.668 47.3829 38.5628C46.6221 39.4467 45.7483 40.2336 44.9164 41.0553C44.3805 41.5846 43.8286 41.6304 43.4087 41.2008C42.9811 40.7634 43.0318 40.2476 43.5784 39.6957C44.895 38.3664 46.2459 37.0701 47.5335 35.7134C52.7151 30.254 50.1322 21.3051 42.8369 19.5376C39.3841 18.7011 36.3248 19.5976 33.7344 22.0428C32.7709 22.9524 32.516 22.9639 31.5881 22.0666C28.623 19.1992 24.377 18.4489 20.6835 20.1396C17.0236 21.8149 14.798 25.5731 15.0787 29.7024C15.2341 31.9875 16.091 34.0153 17.7035 35.6457C22.5175 40.5132 27.3695 45.3427 32.1952 50.1985C32.612 50.6179 32.8638 50.4364 33.1886 50.1091C35.4951 47.7853 37.811 45.4709 40.125 43.1545C40.2749 43.0044 40.4172 42.8379 40.5918 42.7231C40.9935 42.4589 41.4048 42.4798 41.7601 42.8092C42.113 43.1363 42.1867 43.5421 41.9421 43.9654C41.838 44.1455 41.6811 44.299 41.5321 44.4485C39.1911 46.7979 36.8491 49.1463 34.5036 51.4913C33.271 52.7236 32.023 52.7217 30.7913 51.4882C26.2392 46.9299 21.6856 42.3732 17.145 37.8035C16.8196 37.476 16.4892 37.3674 16.0383 37.3226C14.183 37.1381 12.3309 36.9134 10.4839 36.6581C9.75026 36.5566 9.39879 36.0599 9.52493 35.4866C9.6543 34.8987 10.1182 34.6568 10.873 34.7819C12.2081 35.0033 13.5433 35.2237 15.0802 35.4778C13.2708 32.5127 12.7387 29.4984 13.4334 26.304C11.9688 25.743 10.2658 26.3887 9.5967 27.7249C9.53968 27.8388 9.49989 27.9634 9.43032 28.0685C9.12924 28.5234 8.70007 28.668 8.21508 28.4429C7.72797 28.2169 7.4871 27.7467 7.73543 27.2791C8.09806 26.5964 8.60162 25.9892 9.03786 25.345C9.21995 25.076 9.46756 24.8155 9.54238 24.5154C10.2978 21.4854 11.0234 18.448 11.7579 15.4127C11.7979 15.2475 11.7932 15.0382 11.8944 14.9277C12.1358 14.6646 12.4101 14.2915 12.705 14.2574C12.9989 14.2235 13.4505 14.4686 13.6302 14.7308C14.2701 15.6646 14.3582 15.7317 15.4396 15.3746C16.0033 15.1884 16.573 15.0181 17.1292 14.8113C18.1036 14.449 18.5331 13.6387 18.2921 12.6305C18.1193 11.9074 17.9345 11.1868 17.7355 10.4705C17.4565 9.46662 16.7939 8.98878 15.7482 9.08969C14.4809 9.21199 13.2091 9.33223 11.9587 9.5606C11.5208 9.64057 11.0766 9.97359 10.7457 10.3026C9.4472 11.594 8.59577 13.1978 7.79618 14.8192C5.33568 19.8085 3.5852 25.0653 1.99933 30.3835C1.87373 30.8047 2.0791 30.9874 2.36588 31.1469C3.6992 31.8887 5.03802 32.6206 6.37724 33.3516C6.56274 33.4529 6.77981 33.5036 6.95041 33.6233C7.36056 33.9111 7.53307 34.3067 7.31178 34.7868C7.08679 35.2749 6.68188 35.5078 6.16639 35.3123C4.23127 34.5784 2.41267 33.6135 0.781951 32.3349C0.117993 31.8144 -0.15504 31.029 0.0869683 30.2082C1.93929 23.9262 3.9251 17.6902 7.17777 11.9583C7.77053 10.9138 8.54731 9.96386 9.31233 9.03046C10.0699 8.10614 11.0733 7.62355 12.3034 7.55521C13.4454 7.49176 14.5774 7.26482 15.7188 7.16948C17.5106 7.01981 19.0221 8.07487 19.5276 9.80216C19.772 10.6374 19.99 11.4821 20.1792 12.3317C20.5779 14.1212 19.6791 15.8506 17.9848 16.5226C17.1581 16.8505 16.3182 17.1868 15.4525 17.3607C14.7759 17.4966 14.0505 17.3879 13.2521 17.3879C12.7351 19.5113 12.1734 21.8183 11.6086 24.1383C12.3737 24.2053 13.1012 24.2988 13.8299 24.3095C13.9885 24.3118 14.206 24.0464 14.3043 23.8565C16.0669 20.4508 18.7978 18.2799 22.5601 17.5599C26.1895 16.8654 29.4622 17.7601 32.3148 20.1359C32.3962 20.2036 32.4803 20.268 32.5648 20.3318C32.5804 20.3436 32.6036 20.3453 32.5363 20.3236C33.614 19.6659 34.5912 18.9358 35.6733 18.4315C41.4153 15.7559 48.1418 18.1406 50.9504 23.8215C51.1749 24.2756 51.3995 24.3719 51.8668 24.2932C52.4447 24.196 53.04 24.2022 53.69 24.1596C53.1297 21.8509 52.5706 19.5473 52.0081 17.23C49.9821 17.9057 48.2749 16.9843 46.6299 16.1273C45.3108 15.4401 44.7772 13.8333 45.1076 12.3692C45.3039 11.4994 45.5232 10.6332 45.7735 9.77751C46.2674 8.08949 47.7876 7.01863 49.537 7.167C50.8897 7.28172 52.2496 7.40683 53.5782 7.6697C54.2514 7.80288 54.9521 8.14124 55.4843 8.57784C56.9383 9.77069 57.8514 11.3999 58.7307 13.0317C58.9924 13.5176 58.8047 14.0554 58.368 14.3074C57.9007 14.5771 57.3851 14.4347 57.0548 13.921C56.4692 13.0105 55.9189 12.0763 55.3115 11.1808C54.6051 10.1395 53.7268 9.40024 52.3479 9.39112C51.3985 9.38484 50.4524 9.16626 49.5011 9.08532C48.4953 8.99973 47.8371 9.47802 47.5647 10.4534C47.3589 11.1898 47.1663 11.9304 46.9909 12.6746C46.7678 13.6215 47.1804 14.4244 48.0934 14.7734C48.8057 15.0457 49.5381 15.2654 50.2624 15.5056C50.8422 15.6979 51.2708 15.497 51.52 14.9591C51.7477 14.4678 52.0592 14.1337 52.6405 14.2211C53.1942 14.3044 53.3723 14.7268 53.4885 15.2092C54.2298 18.2865 54.9679 21.3647 55.7377 24.4348C55.8227 24.7736 56.0881 25.0731 56.2941 25.3741C56.6867 25.9476 57.1486 26.4802 57.4848 27.084C57.8002 27.6503 57.5936 28.1983 57.0992 28.443C56.5777 28.7011 56.0739 28.4822 55.754 27.8587C54.9998 26.3885 53.4358 25.7427 51.9185 26.2748C52.225 30.5021 52.5989 30.3005 50.3668 35.378C54.9843 35.0301 59.2382 33.697 63.0597 31.0658C63.4094 30.825 63.3583 30.5623 63.2451 30.2381C61.8453 26.2303 60.4505 22.2207 59.0534 18.2119C59.0046 18.0716 58.943 17.9358 58.8909 17.7965C58.6512 17.1553 58.8378 16.6055 59.361 16.4071C59.9071 16.2001 60.3991 16.4415 60.6647 17.0944C61.1928 18.3926 61.7505 19.682 62.2041 21.0066C63.2084 23.9394 64.1554 26.8918 65.1277 29.8356C65.1664 29.9529 65.2245 30.0638 65.2735 30.1776L65.2735 31.1991Z" fill="#307BC4"/>
<path d="M36.8228 10.9341C36.8228 11.4784 36.8453 11.9014 36.8184 12.3212C36.7509 13.377 35.9925 14.2601 34.9424 14.3281C33.7176 14.4075 32.4797 14.4075 31.255 14.3274C30.2085 14.259 29.449 13.3691 29.3844 12.3154C29.3587 11.8957 29.3802 11.4731 29.3802 10.9562C28.9992 10.9562 28.6897 10.9621 28.3804 10.9552C26.8108 10.9202 25.9477 10.0488 25.9375 8.48309C25.9315 7.56835 25.9243 6.65332 25.9402 5.73881C25.964 4.36531 26.8657 3.4744 28.2284 3.45672C28.5839 3.4521 28.9396 3.45602 29.3737 3.45602C29.3737 2.99047 29.3598 2.59158 29.3762 2.19395C29.4283 0.933713 30.3196 0.0409519 31.5752 0.0155592C32.594 -0.00504531 33.6138 -0.00538989 34.6326 0.0157468C35.8858 0.0417468 36.7751 0.935724 36.8279 2.19769C36.8445 2.59568 36.8305 2.99496 36.8305 3.45603C37.2687 3.45603 37.6242 3.45196 37.9796 3.45675C39.3141 3.47474 40.2315 4.35515 40.2609 5.67972C40.2832 6.67909 40.2807 7.67962 40.2624 8.67914C40.2393 9.93934 39.449 10.8015 38.1987 10.9275C37.7814 10.9695 37.3563 10.9341 36.8228 10.9341ZM27.8483 7.19363C27.8483 7.61895 27.8634 8.04496 27.844 8.46939C27.8253 8.87999 28.002 9.05078 28.4049 9.04284C28.9566 9.03197 29.5087 9.03641 30.0605 9.04277C30.9655 9.0532 31.2668 9.35937 31.2793 10.284C31.2867 10.8368 31.2933 11.3901 31.278 11.9426C31.2674 12.3273 31.4403 12.479 31.8101 12.476C32.6591 12.4691 33.5084 12.4624 34.3571 12.4792C34.8129 12.4882 34.9422 12.2698 34.9284 11.8517C34.9089 11.2569 34.9053 10.66 34.9324 10.0658C34.9636 9.38251 35.2966 9.06531 35.9787 9.0465C36.5938 9.02954 37.2098 9.0366 37.8253 9.04122C38.1911 9.04397 38.3659 8.89382 38.3597 8.50703C38.3457 7.63536 38.3471 6.76318 38.3591 5.89145C38.3644 5.51127 38.2137 5.3541 37.8291 5.36668C37.2566 5.38541 36.6829 5.37896 36.11 5.36898C35.2928 5.35474 34.9465 5.01634 34.9269 4.20375C34.9126 3.60864 34.9171 3.01287 34.9238 2.41751C34.9277 2.07096 34.7786 1.91728 34.4264 1.92132C33.5562 1.93133 32.6857 1.9343 31.8157 1.91959C31.437 1.91318 31.2689 2.06091 31.2793 2.44317C31.2915 2.8894 31.2811 3.33625 31.2808 3.78284C31.2798 5.14718 31.0554 5.37075 29.6858 5.37117C28.4605 5.37155 27.848 5.97903 27.8483 7.19363Z" fill="#307BC4"/>
<path d="M8.81329 49.0495C8.81329 48.5537 8.79682 48.1531 8.81643 47.7543C8.87168 46.6306 9.64064 45.7329 10.7486 45.6621C11.9319 45.5864 13.1271 45.5866 14.3106 45.6588C15.4238 45.7267 16.2006 46.6165 16.2606 47.7356C16.282 48.1354 16.264 48.5374 16.264 49.0446C16.6326 49.0446 16.9402 49.0395 17.2477 49.0455C18.8229 49.0764 19.6922 49.944 19.7039 51.5043C19.7107 52.419 19.717 53.3341 19.7015 54.2486C19.6777 55.6531 18.774 56.5311 17.3608 56.5444C17.0253 56.5475 16.6897 56.5448 16.2706 56.5448C16.2706 56.9791 16.2805 57.3557 16.2688 57.7315C16.2273 59.065 15.3357 59.9643 14.0124 59.9874C13.0359 60.0044 12.0587 60.0034 11.0822 59.9881C9.74735 59.9673 8.85479 59.0806 8.81051 57.7481C8.79798 57.3711 8.80859 56.9933 8.80859 56.5445C8.35788 56.5445 7.98207 56.551 7.60655 56.5433C6.32367 56.5173 5.40995 55.6217 5.38018 54.3298C5.35765 53.3517 5.3636 52.3726 5.37608 51.3941C5.39377 50.008 6.23521 49.1334 7.62126 49.0526C7.97874 49.0318 8.33845 49.0495 8.81329 49.0495ZM7.28605 52.8097C7.28605 53.235 7.30079 53.661 7.28187 54.0855C7.26321 54.5045 7.44766 54.6501 7.85268 54.6349C8.42497 54.6134 8.99891 54.6198 9.57173 54.6327C10.3444 54.6501 10.6913 54.9945 10.7139 55.7739C10.7305 56.3476 10.7348 56.9228 10.7135 57.4962C10.6968 57.9435 10.8848 58.0954 11.3196 58.0835C12.1468 58.0608 12.9753 58.0636 13.8027 58.0822C14.2174 58.0915 14.375 57.9227 14.364 57.5163C14.3479 56.9213 14.3457 56.325 14.3664 55.7302C14.392 54.9947 14.746 54.6516 15.4861 54.6332C16.0801 54.6185 16.6751 54.6158 17.2689 54.6342C17.6555 54.6461 17.8018 54.4837 17.7967 54.1063C17.7852 53.2345 17.7834 52.3624 17.7974 51.4907C17.8036 51.1019 17.6243 50.9564 17.2603 50.9595C16.666 50.9646 16.0715 50.9688 15.4774 50.9562C14.72 50.94 14.3906 50.6224 14.3657 49.8679C14.3461 49.2731 14.3504 48.6769 14.3637 48.0818C14.3719 47.7168 14.2435 47.5225 13.8552 47.5256C12.985 47.5326 12.1147 47.5321 11.2445 47.5248C10.8727 47.5216 10.7047 47.6772 10.715 48.0604C10.7303 48.6342 10.7274 49.2089 10.7152 49.7828C10.6974 50.6248 10.3824 50.9383 9.55829 50.9583C9.40979 50.9619 9.26114 50.9594 9.11256 50.9594C7.89422 50.9599 7.28539 51.5767 7.28605 52.8097Z" fill="#307BC4"/>
<path d="M50.1081 49.0461C50.1081 48.5357 50.0906 48.134 50.1114 47.7343C50.1697 46.6174 50.9483 45.7286 52.0619 45.6582C53.2244 45.5847 54.398 45.5844 55.5611 45.6512C56.7073 45.7169 57.4972 46.6066 57.5555 47.7557C57.5758 48.1544 57.5588 48.5551 57.5588 49.0455C57.9621 49.0455 58.2941 49.0363 58.6254 49.0471C60.1178 49.0956 60.9819 49.9726 60.9971 51.4612C61.0062 52.3546 61.006 53.2482 60.9972 54.1417C60.9822 55.6725 60.1041 56.5376 58.5701 56.5449C58.274 56.5463 57.978 56.5451 57.5657 56.5451C57.5657 56.9263 57.5713 57.2761 57.5648 57.6257C57.5374 59.0824 56.6588 59.9734 55.2208 59.9902C54.2867 60.001 53.3522 60.0022 52.418 59.9897C51.0169 59.9711 50.1323 59.0765 50.1022 57.663C50.095 57.3252 50.1011 56.9871 50.1011 56.5445C49.6652 56.5445 49.2723 56.5521 48.8797 56.5431C47.6296 56.5146 46.7092 55.6232 46.6758 54.3729C46.6496 53.395 46.6596 52.4158 46.6691 51.4373C46.6831 49.9839 47.5421 49.1064 48.9991 49.0481C49.3356 49.0347 49.6731 49.0461 50.1081 49.0461ZM53.829 58.0769C54.2536 58.0769 54.6789 58.0605 55.1024 58.0815C55.5236 58.1025 55.6702 57.9107 55.6577 57.5103C55.6417 57.0004 55.652 56.4896 55.6553 55.9792C55.6621 54.9507 55.9702 54.6364 56.977 54.6304C57.4864 54.6274 57.9971 54.608 58.505 54.6361C58.9583 54.6612 59.1028 54.4676 59.0926 54.0363C59.073 53.2073 59.071 52.3772 59.0933 51.5484C59.1055 51.0951 58.9048 50.9458 58.4835 50.9567C57.9108 50.9715 57.3372 50.9692 56.7643 50.9562C56.0102 50.9392 55.6839 50.6203 55.6596 49.8614C55.6405 49.2665 55.6441 48.6703 55.6576 48.0752C55.666 47.7049 55.5253 47.5222 55.142 47.5254C54.2718 47.5327 53.4015 47.5327 52.5313 47.5252C52.1537 47.5219 51.9994 47.69 52.0088 48.0674C52.0236 48.6625 52.0257 49.2587 52.0073 49.8536C51.9837 50.6145 51.6573 50.9373 50.9089 50.9562C50.3998 50.9691 49.888 50.9885 49.3812 50.9521C48.7927 50.9098 48.5224 51.0895 48.5669 51.7326C48.6166 52.4523 48.6062 53.1794 48.5693 53.9006C48.5415 54.443 48.7004 54.6977 49.2804 54.6373C49.6584 54.5978 50.0438 54.6298 50.4259 54.6299C51.7873 54.6303 52.0111 54.8556 52.0119 56.2267C52.0126 57.4605 52.6183 58.0772 53.829 58.0769Z" fill="#307BC4"/>
</svg>
