<svg width="33" height="33" viewBox="0 0 33 33" fill="none" xmlns="http://www.w3.org/2000/svg">
<path d="M16.25 32.5C19.4639 32.5 22.6057 31.547 25.278 29.7614C27.9503 27.9758 30.0331 25.4379 31.263 22.4686C32.493 19.4993 32.8148 16.232 32.1878 13.0798C31.5607 9.92759 30.0131 7.03212 27.7405 4.75952C25.4679 2.48691 22.5724 0.939252 19.4202 0.312242C16.268 -0.314768 13.0007 0.00703586 10.0314 1.23696C7.06209 2.46688 4.52419 4.54969 2.73862 7.22198C0.953044 9.89428 -2.35152e-06 13.0361 -2.6325e-06 16.25C0.00454671 20.5584 1.71806 24.689 4.76454 27.7355C7.81102 30.7819 11.9416 32.4954 16.25 32.5ZM9.11562 15.3656L14.1156 10.3656C14.3502 10.1311 14.6683 9.9993 15 9.9993C15.3317 9.9993 15.6498 10.1311 15.8844 10.3656C16.1189 10.6002 16.2507 10.9183 16.2507 11.25C16.2507 11.5817 16.1189 11.8998 15.8844 12.1344L13.0172 15L22.5 15C22.8315 15 23.1495 15.1317 23.3839 15.3661C23.6183 15.6005 23.75 15.9185 23.75 16.25C23.75 16.5815 23.6183 16.8995 23.3839 17.1339C23.1495 17.3683 22.8315 17.5 22.5 17.5L13.0172 17.5L15.8844 20.3656C16.1189 20.6002 16.2507 20.9183 16.2507 21.25C16.2507 21.5817 16.1189 21.8998 15.8844 22.1344C15.6498 22.3689 15.3317 22.5007 15 22.5007C14.6683 22.5007 14.3502 22.3689 14.1156 22.1344L9.11562 17.1344C8.9994 17.0183 8.9072 16.8804 8.8443 16.7287C8.78139 16.5769 8.74901 16.4143 8.74901 16.25C8.74901 16.0857 8.78139 15.9231 8.8443 15.7713C8.9072 15.6196 8.9994 15.4817 9.11562 15.3656Z" fill="#307BC4"/>
</svg>
