<svg width="40" height="40" viewBox="0 0 40 40" fill="none" xmlns="http://www.w3.org/2000/svg">
<rect width="40" height="40" rx="20" fill="white"/>
<path d="M20 20C20.55 20 21.0208 19.8042 21.4125 19.4125C21.8042 19.0208 22 18.55 22 18C22 17.45 21.8042 16.9792 21.4125 16.5875C21.0208 16.1958 20.55 16 20 16C19.45 16 18.9792 16.1958 18.5875 16.5875C18.1958 16.9792 18 17.45 18 18C18 18.55 18.1958 19.0208 18.5875 19.4125C18.9792 19.8042 19.45 20 20 20ZM20 27.35C22.0333 25.4833 23.5417 23.7875 24.525 22.2625C25.5083 20.7375 26 19.3833 26 18.2C26 16.3833 25.4208 14.8958 24.2625 13.7375C23.1042 12.5792 21.6833 12 20 12C18.3167 12 16.8958 12.5792 15.7375 13.7375C14.5792 14.8958 14 16.3833 14 18.2C14 19.3833 14.4917 20.7375 15.475 22.2625C16.4583 23.7875 17.9667 25.4833 20 27.35ZM20 30C17.3167 27.7167 15.3125 25.5958 13.9875 23.6375C12.6625 21.6792 12 19.8667 12 18.2C12 15.7 12.8042 13.7083 14.4125 12.225C16.0208 10.7417 17.8833 10 20 10C22.1167 10 23.9792 10.7417 25.5875 12.225C27.1958 13.7083 28 15.7 28 18.2C28 19.8667 27.3375 21.6792 26.0125 23.6375C24.6875 25.5958 22.6833 27.7167 20 30Z" fill="#44757A"/>
</svg>
