<svg width="54" height="60" viewBox="0 0 54 60" fill="none" xmlns="http://www.w3.org/2000/svg">
<g clip-path="url(#clip0_662_2683)">
<path d="M25.8013 59.9999C24.4121 59.5907 23.6757 58.5936 23.1155 57.2748C22.5585 55.9634 21.8463 54.6872 21.013 53.5368C19.6371 51.6375 17.6964 51.0161 15.4058 51.3771C13.7756 51.6339 12.1347 51.8349 10.4923 51.9946C8.90488 52.149 7.38954 51.8253 6.01446 50.9839C3.81061 49.6355 3.07534 47.0246 4.21534 44.6919C4.25724 44.6061 4.29315 44.5174 4.35279 44.3828C3.76276 43.9518 2.82487 44.0156 2.59285 43.0681C2.39306 42.2521 2.52707 41.531 2.9918 40.809C2.72477 40.5701 2.47564 40.3317 2.21084 40.1129C1.27861 39.3427 1.27047 37.8043 2.32962 37.1652C2.62129 36.9892 2.86027 36.7181 3.10815 36.4746C3.22971 36.3552 3.3163 36.1991 3.47219 35.9868C3.20427 35.8621 2.96922 35.7633 2.7438 35.6456C2.18443 35.3535 1.57126 35.1281 1.08413 34.7406C-0.153151 33.7563 -0.357334 31.9792 0.605672 30.7147C0.964439 30.2436 1.43073 29.8446 1.8925 29.4691C3.08595 28.4987 4.17188 27.44 4.96168 26.0901C5.19681 25.6882 5.21453 25.3405 4.98505 24.9463C4.63394 24.3433 4.27779 23.7413 3.96552 23.1174C3.60893 22.4049 3.52155 21.6297 3.9061 20.9212C4.76493 19.339 4.98599 17.6125 5.15437 15.8627C5.21986 15.1822 5.58805 14.8078 6.10516 14.8459C6.66224 14.887 6.93779 15.3083 6.87911 16.0419C6.73268 17.873 6.5395 19.6918 5.62236 21.3362C5.37333 21.7827 5.41991 22.229 5.68475 22.6656C5.98663 23.1633 6.28056 23.6665 6.5622 24.1762C7.0777 25.1092 7.03646 26.025 6.49714 26.9458C5.55804 28.5492 4.28887 29.8349 2.84793 30.9671C2.28889 31.4064 1.6388 31.8202 1.80116 32.6989C1.95448 33.5287 2.67343 33.7101 3.31062 33.9714C3.34612 33.986 3.3843 33.9937 3.4203 34.0072C5.42294 34.7563 5.76464 36.1599 4.32218 37.7636C4.02716 38.0916 3.68245 38.3735 3.47291 38.5709C3.87463 39.0541 4.25232 39.5416 4.66466 39.9967C5.26928 40.664 5.26496 41.0563 4.62781 41.6752C4.45753 41.8406 4.33481 42.0564 4.16373 42.2845C4.57708 42.4946 4.92965 42.6426 5.25054 42.8429C6.13398 43.3944 6.43111 44.3788 5.8826 45.2617C4.83605 46.9462 5.68473 49.0362 7.48451 49.7766C8.77988 50.3095 10.1084 50.2932 11.4536 50.1229C13.0151 49.9252 14.5699 49.655 16.1363 49.518C18.0811 49.3479 19.8131 49.9607 21.2932 51.2619C22.8414 52.623 23.8165 54.3835 24.6296 56.2531C24.7767 56.5914 24.9023 56.9395 25.0557 57.2747C25.4113 58.0521 26.0209 58.3676 26.8375 58.1555C32.037 56.805 37.234 55.4447 42.4317 54.0871C42.933 53.9562 43.4376 53.836 43.9329 53.6848C44.8379 53.4087 45.2373 52.6478 44.9527 51.7273C44.729 51.0036 44.4644 50.293 44.2331 49.5716C44.0109 48.8783 44.1995 48.4183 44.7547 48.2415C45.2598 48.0807 45.6547 48.3555 45.8859 49.0269C46.1072 49.6698 46.3312 50.3118 46.5517 50.955C47.2699 53.05 46.3528 54.8747 44.2405 55.441C40.4054 56.4691 36.5609 57.4611 32.7201 58.4671C30.9203 58.9385 29.1197 59.4069 27.3203 59.8801C27.2327 59.9031 27.1535 59.9592 27.0704 59.9999H25.8013Z" fill="#307BC4"/>
<path d="M34.0603 7.91628C36.1713 6.67746 38.2925 6.51799 40.449 7.55552C41.893 8.25029 42.9062 9.39073 43.5767 10.8647C43.6786 11.0888 43.9273 11.3216 44.1569 11.3969C48.4811 12.8142 50.1133 18.1402 47.3089 21.7755C47.062 22.0954 47.0158 22.3144 47.1887 22.6968C48.8298 26.3265 47.4486 30.6068 44.0118 32.5494C43.636 32.7618 43.4894 32.9929 43.4172 33.4308C42.7659 37.3798 38.064 39.2336 34.9677 36.7517C34.4802 36.3608 34.0104 36.273 33.3962 36.2925C33.706 37.3094 34.0078 38.289 34.3027 39.2708C34.7744 40.8416 33.8978 41.9244 32.3019 41.7231C31.4455 41.615 30.5913 41.4806 29.7414 41.328C28.6541 41.1328 27.9135 40.505 27.4981 39.4526C26.6849 37.3926 25.8481 35.3423 25.0189 33.2889C24.7429 32.6054 24.3376 32.3451 23.6271 32.341C21.6648 32.3299 20.1597 31.4742 19.1129 29.7896C19.0215 29.6425 18.9421 29.4878 18.8993 29.4115C18.061 29.6617 17.2759 30.0025 16.4597 30.1197C14.0817 30.4611 12.1317 29.5879 10.735 27.6336C9.33555 25.6752 9.20176 23.5379 10.173 21.3197C10.2819 21.0708 10.3077 20.7126 10.2212 20.4579C8.95359 16.727 10.788 12.8251 14.4369 11.4861C14.6759 11.3984 14.9266 11.1296 15.0219 10.8848C16.1788 7.91311 19.298 6.35411 22.3153 7.28665C22.6544 7.39144 22.8391 7.28924 23.117 7.09669C23.9349 6.52999 24.7872 6.00635 25.6634 5.5381C26.1319 5.28776 26.6319 5.53601 26.8141 5.97447C27.0092 6.44398 26.8095 6.95985 26.2898 7.16319C25.2614 7.56555 24.3955 8.18218 23.6879 9.03736C23.3561 9.4384 22.9491 9.49528 22.4979 9.25912C20.0563 7.98126 17.0854 9.41341 16.4962 12.129C16.381 12.66 16.0781 12.9092 15.5724 13.0271C12.3377 13.7811 10.6673 17.2332 12.0794 20.2798C12.3346 20.8305 12.2715 21.2475 11.9684 21.7433C10.8764 23.5294 11.1981 25.8235 12.7022 27.2495C14.1659 28.6373 16.426 28.8153 18.0746 27.6714C18.1511 27.6183 18.2196 27.5531 18.3287 27.4632C18.15 27.3357 17.9972 27.2283 17.846 27.1187C15.8989 25.7062 15.8303 22.8015 17.7089 21.3286C18.2514 20.9033 18.7291 20.9112 19.0812 21.3511C19.4204 21.7751 19.3205 22.2741 18.8077 22.718C17.6541 23.7163 17.9158 25.3841 19.3335 25.896C19.9098 26.1041 20.1546 26.4295 20.1527 27.0546C20.1456 29.255 21.8593 30.7834 24.0057 30.4978C24.5685 30.4229 24.9767 30.5381 25.3756 30.9926C26.2447 31.9829 27.686 32.0651 28.6947 31.1852C29.2114 30.7345 29.6369 30.6757 30.2377 31.0254C32.2627 32.204 34.6802 31.3573 35.6288 29.1817C35.6831 29.0572 35.7271 28.9255 35.7982 28.8115C36.0619 28.3886 36.4482 28.2526 36.8904 28.4499C37.3272 28.6447 37.5283 29.0161 37.3715 29.5013C37.253 29.8678 37.0854 30.218 36.9172 30.6305C38.0724 31.4832 39.3751 31.8956 40.793 31.7355C45.2426 31.2329 47.4852 26.6353 45.2222 22.7154C44.8391 22.0518 44.8771 21.7991 45.442 21.2358C46.7935 19.8884 47.2696 18.2522 46.7675 16.4196C46.2588 14.5626 45.0118 13.3909 43.1243 13.0013C42.5649 12.8859 42.2842 12.5753 42.1076 12.0343C41.0383 8.75775 37.3396 7.62172 34.6293 9.71972C33.913 10.2742 33.505 10.222 33.0054 9.4756C32.2437 8.33771 31.2312 7.55263 29.94 7.12551C29.3054 6.91559 29.0296 6.45147 29.1922 5.94921C29.3649 5.41547 29.8603 5.22163 30.5197 5.44116C31.924 5.90864 33.0892 6.73798 34.0603 7.91628ZM27.0929 33.7373C27.773 35.4226 28.4806 37.2024 29.2182 38.9692C29.3058 39.1789 29.5338 39.4268 29.7363 39.4715C30.6811 39.68 31.6398 39.8233 32.6872 40.0064C31.9854 37.6901 31.3233 35.4832 30.6422 33.2823C30.549 32.9809 29.697 32.7514 29.3983 32.8694C28.6594 33.1613 27.9118 33.4308 27.0929 33.7373ZM32.5527 33.5072C32.5689 34.2698 33.1303 34.5368 34.1219 34.4855C34.8257 34.4492 35.2899 34.6565 35.7914 35.1371C36.7673 36.0722 37.9616 36.3461 39.2588 35.9237C40.45 35.5359 41.2255 34.7159 41.6327 33.4417C39.447 33.7409 37.4992 33.2865 35.9213 32.1084C34.7383 32.5996 33.6726 33.0422 32.5527 33.5072Z" fill="#307BC4"/>
<path d="M54 22.3442C53.8519 24.9544 53.7172 27.54 52.9684 30.0512C52.0052 33.2816 50.0491 35.8603 47.7621 38.2185C47.1284 38.8719 46.4937 39.5313 45.8017 40.1177C45.0403 40.7629 44.7345 41.5886 44.7317 42.5365C44.7293 43.3527 44.8274 44.1691 44.8804 44.9855C44.9154 45.5246 44.6218 45.9252 44.1374 46.0012C43.6991 46.0699 43.2506 45.7802 43.1708 45.2799C42.9461 43.8699 42.8276 42.4541 43.1889 41.0432C43.393 40.2458 43.808 39.5914 44.4058 39.0322C46.1746 37.3777 47.891 35.6739 49.2966 33.6742C51.0112 31.2351 51.8546 28.4909 51.9867 25.5321C52.0762 23.5289 52.1463 21.5076 51.9873 19.5139C51.6301 15.0348 49.6736 11.3167 46.3613 8.35083C42.8964 5.24834 38.7531 3.57416 34.3007 2.6054C30.9963 1.88641 27.6506 1.58565 24.2767 1.90255C19.2701 2.37281 14.7154 3.96062 11.0456 7.62563C9.81542 8.85422 8.848 10.2757 8.10688 11.8622C7.96856 12.1583 7.72084 12.496 7.44435 12.6026C7.20754 12.6939 6.73391 12.5761 6.58849 12.38C6.40909 12.1381 6.32457 11.6631 6.4353 11.3862C7.09857 9.72773 8.07424 8.25697 9.26259 6.93647C12.2181 3.65228 15.935 1.66272 20.1608 0.783367C28.7343 -1.00072 36.9153 0.237164 44.4817 4.75813C49.3501 7.66701 52.4874 11.9801 53.5232 17.7C53.7996 19.2261 53.8473 20.795 54 22.3442Z" fill="#307BC4"/>
<path d="M29.6741 14.3623C30.5604 13.551 31.5615 13.0356 32.7465 12.8718C34.7829 12.5902 36.8901 13.6803 37.9441 15.6119C38.9833 17.5162 38.7895 19.7909 37.4303 21.4054C37.0689 21.8347 36.6716 22.2351 36.2689 22.6255C35.8593 23.0225 35.3333 23.0145 34.9878 22.6405C34.6624 22.2882 34.68 21.7838 35.0454 21.3798C35.3832 21.0065 35.7576 20.6649 36.0723 20.2732C37.2952 18.7516 37.0449 16.6584 35.5069 15.3986C34.0287 14.1877 31.8433 14.4236 30.6634 15.9188C30.4964 16.1305 30.3451 16.371 30.136 16.5292C29.6997 16.8589 29.246 16.6914 28.7873 16.0798C27.7029 14.6339 25.9234 14.203 24.3689 15.0099C22.2897 16.089 21.8349 18.8559 23.4772 20.5381C25.3714 22.4783 27.2906 24.3934 29.1824 26.336C29.5629 26.7268 29.8365 26.6867 30.1854 26.3121C30.7793 25.6742 31.3999 25.0617 32.0169 24.4464C32.5018 23.9629 32.9928 23.9275 33.3779 24.3308C33.7493 24.7199 33.7217 25.2046 33.2702 25.6723C32.5707 26.3969 31.8694 27.1207 31.1451 27.8194C30.2734 28.6605 29.0436 28.6679 28.1922 27.8148C26.1402 25.7589 24.0868 23.7036 22.0767 21.6059C20.67 20.1379 20.3842 18.3463 21.0168 16.4527C21.6653 14.5113 23.0505 13.3177 25.0406 12.9268C26.8061 12.58 28.334 13.1445 29.6741 14.3623Z" fill="#307BC4"/>
</g>
<defs>
<clipPath id="clip0_662_2683">
<rect width="54" height="60" fill="white"/>
</clipPath>
</defs>
</svg>
