<svg width="60" height="60" viewBox="0 0 60 60" fill="none" xmlns="http://www.w3.org/2000/svg">
<g clip-path="url(#clip0_662_2668)">
<path d="M27.7947 60C26.674 59.848 25.5471 59.7327 24.4336 59.538C18.2561 58.4578 12.9643 55.6204 8.55701 51.1172C4.32488 46.7929 1.57037 41.6256 0.521692 35.6156C-1.12167 26.1977 1.12484 17.7878 7.1569 10.4317C7.59999 9.8914 8.18856 9.79129 8.61593 10.1535C9.05503 10.5257 9.07408 11.0829 8.60327 11.6595C7.2129 13.3622 5.96853 15.1602 4.97242 17.133C3.41385 20.2197 2.44182 23.4824 2.06038 26.9292C0.47067 41.2937 10.0289 54.6475 23.9579 57.5189C38.4714 60.5109 52.7795 51.3695 56.3467 36.8261C60.0331 21.7961 51.0402 6.48732 36.2618 2.79928C27.9488 0.724705 20.2642 2.34719 13.2581 7.31583C12.6447 7.75084 12.0863 8.26526 11.4962 8.73488C10.8816 9.22404 10.3393 9.23192 9.96678 8.77035C9.60429 8.32117 9.72831 7.7409 10.2963 7.25189C14.9078 3.28182 20.2116 0.961014 26.2194 0.211271C40.2335 -1.53761 54.0468 7.74722 57.8743 21.5392C58.4385 23.5721 58.8382 25.6348 58.9654 27.7473C58.9756 27.9165 59.0291 28.0829 59.0625 28.2506V31.7653C59.027 31.9719 58.9842 32.1775 58.9572 32.3852C58.8169 33.4672 58.7343 34.5601 58.534 35.6303C57.4156 41.6041 54.7379 46.7653 50.5285 51.0804C46.1149 55.6049 40.8115 58.4538 34.616 59.5381C33.5029 59.7329 32.3764 59.8481 31.2561 60H27.7947Z" fill="#307BC4"/>
<path d="M29.3875 56.2346C18.9615 55.7357 10.9338 50.9275 6.26046 41.1238C1.28897 30.6945 3.71591 18.6019 12.129 10.7554C17.6973 5.56216 24.3493 3.29835 31.8901 3.98164C42.7679 4.96729 51.8654 12.8166 54.4765 23.5778C56.4564 31.7371 54.8629 39.2366 49.8999 45.9797C49.7158 46.2298 49.523 46.4732 49.3325 46.7183C48.8089 47.3915 48.2491 47.5492 47.7747 47.1586C47.3002 46.7678 47.3252 46.2424 47.8316 45.5607C48.3636 44.8447 48.9139 44.14 49.403 43.3943C52.2046 39.1231 53.5134 34.3983 53.3853 29.2854C53.2608 24.31 51.7196 19.7929 48.8154 15.7807C45.2216 10.8157 40.4549 7.6217 34.5227 6.31305C29.3877 5.18026 24.4014 5.73572 19.6163 7.97472C14.8355 10.2117 11.164 13.6848 8.61391 18.3457C6.32615 22.5271 5.37439 27.0268 5.72165 31.8089C6.09076 36.892 7.87617 41.4182 11.0568 45.3253C15.0508 50.2315 20.178 53.1938 26.4259 54.0325C31.7904 54.7527 36.8265 53.6802 41.5087 50.9574C42.6367 50.3015 43.656 49.4528 44.7247 48.6917C44.8818 48.5798 45.027 48.4484 45.1917 48.3504C45.6402 48.0836 46.1388 48.172 46.4298 48.5559C46.7156 48.9331 46.6962 49.4858 46.3123 49.8263C45.7486 50.3264 45.1633 50.807 44.5522 51.2456C41.0567 53.754 37.2044 55.3627 32.9437 55.9025C31.8393 56.0424 30.7263 56.1117 29.3875 56.2346Z" fill="#307BC4"/>
<path d="M19.9851 24.9035C20.1178 25.0228 20.1298 25.0404 20.1462 25.0474C20.6413 25.2579 21.1676 25.6788 21.6227 25.6105C21.9923 25.5551 22.2819 24.917 22.598 24.5299C24.9017 21.7083 27.8605 20.5355 31.373 21.3073C34.9584 22.0951 37.2737 24.4418 38.0837 28.0834C38.8395 31.4816 37.8059 34.3947 35.2719 36.7487C35.1029 36.9057 34.9201 37.0475 34.7174 37.2186C35.0315 37.7721 35.3348 38.3065 35.6745 38.9052C36.1485 38.4927 36.5655 38.1242 36.9888 37.7632C37.522 37.3084 38.0401 37.2936 38.4251 37.7138C38.8124 38.1365 38.7292 38.7159 38.2236 39.2012C36.7318 40.6329 35.0085 41.6547 33.0388 42.2493C32.3507 42.4571 31.8423 42.2709 31.6525 41.7168C31.4674 41.1765 31.7731 40.6806 32.4365 40.4412C32.9562 40.2537 33.4751 40.0637 34.0353 39.86C33.7009 39.2718 33.4057 38.7527 33.0936 38.2036C29.6969 39.5007 26.5188 39.1608 23.7637 36.7154C21.0244 34.284 20.2327 31.1591 21.0592 27.5155C20.785 27.4011 20.5086 27.286 20.2322 27.1707C19.9513 27.0535 19.6705 26.9361 19.2576 26.7637C19.1239 27.6364 18.9968 28.4322 18.8828 29.2299C18.847 29.4803 18.8561 29.737 18.8276 29.9888C18.7578 30.6049 18.3983 30.9605 17.8736 30.9467C17.3322 30.9325 16.9067 30.5088 16.9722 29.8815C17.0954 28.7029 17.2058 27.507 17.5017 26.3664C18.0245 24.3514 19.0941 22.6198 20.5175 21.1155C20.8254 20.7901 21.208 20.5896 21.5965 20.7934C21.8646 20.934 22.1705 21.2785 22.1916 21.5531C22.2156 21.8663 21.991 22.2389 21.7889 22.5228C21.2185 23.3239 20.6042 24.0929 19.9851 24.9035ZM29.5094 22.9873C25.7252 22.9976 22.6194 26.1527 22.6112 29.9949C22.6029 33.8578 25.7374 37.039 29.5413 37.0287C33.3255 37.0184 36.4314 33.8633 36.4396 30.021C36.4479 26.1582 33.3134 22.9769 29.5094 22.9873Z" fill="#307BC4"/>
<path d="M44.7218 40.093C42.1831 40.0531 40.5816 37.8162 41.2245 35.5737C41.6415 34.1194 42.0264 32.6546 42.3839 31.1841C42.8221 29.3821 44.471 28.1817 46.1939 28.4583C48.1183 28.7672 49.3676 30.3736 49.1737 32.3137C48.9785 34.2674 48.4758 36.1454 47.7029 37.9403C47.0988 39.3431 45.9922 40.0409 44.7218 40.093ZM46.7162 35.3517C46.9106 34.213 47.1658 33.0748 47.2815 31.9221C47.3667 31.0739 46.7027 30.408 45.9046 30.3482C45.054 30.2845 44.4085 30.8114 44.2591 31.6915C45.0394 31.9549 45.3459 32.2841 45.2975 32.8065C45.2453 33.368 44.9078 33.5764 43.8724 33.6944C43.5897 34.5084 43.2848 35.3076 43.036 36.1245C42.7756 36.9792 43.2194 37.8168 44.0269 38.0932C44.8046 38.3593 45.5929 37.9896 45.8839 37.2222C45.176 36.7811 44.9678 36.4008 45.1535 35.8884C45.3422 35.3678 45.7272 35.2209 46.7162 35.3517Z" fill="#307BC4"/>
<path d="M42.8695 23.6035C41.6265 23.5808 40.8063 23.1964 40.1124 22.4748C39.0559 21.376 37.9867 20.2889 36.8965 19.2249C35.6577 18.0158 35.4747 15.9768 36.5162 14.5928C37.5732 13.1881 39.5582 12.7292 40.9956 13.6813C42.8618 14.9174 44.4358 16.4999 45.6286 18.415C46.3288 19.5393 46.2522 20.7754 45.5825 21.9115C44.9237 23.0291 43.9107 23.593 42.8695 23.6035ZM40.1326 15.4171C39.3797 14.9291 38.5502 15.0498 38.0369 15.7222C37.5417 16.3709 37.591 17.2644 38.2032 17.8397C38.8342 18.4326 39.5035 18.9835 40.1537 19.5507C40.9303 19.0959 41.4015 19.0888 41.7563 19.522C42.1132 19.9578 42.0358 20.3582 41.4522 21.0948C41.8458 21.7592 42.9039 21.9244 43.642 21.3267C44.2835 20.8071 44.4079 19.8206 43.8575 19.1256C43.1863 18.278 42.459 17.4763 41.759 16.6584C40.9572 17.2842 40.6066 17.3503 40.1809 16.9918C39.772 16.6474 39.7596 16.2444 40.1326 15.4171Z" fill="#307BC4"/>
<path d="M23.2147 43.5574C23.1855 44.666 22.6127 45.6969 21.4704 46.351C20.3543 46.9901 19.1551 47.0589 18.0778 46.3466C16.1946 45.1015 14.6017 43.5117 13.4054 41.5733C12.5081 40.1196 12.9878 38.1295 14.3675 37.0855C15.7132 36.0673 17.6627 36.2302 18.8404 37.44C19.9575 38.5876 21.0886 39.7211 22.2182 40.8561C22.848 41.4889 23.2024 42.3545 23.2147 43.5574ZM17.6067 38.9506C17.2663 38.2866 16.215 38.0994 15.4774 38.6347C14.8282 39.1058 14.6115 40.0877 15.119 40.7654C15.7983 41.6725 16.5676 42.5101 17.2981 43.3772C18.0017 42.7606 18.3715 42.6606 18.7929 42.9799C18.9509 43.0998 19.1416 43.3073 19.145 43.4785C19.1527 43.8598 19.0518 44.2434 18.9912 44.6527C19.6891 45.0772 20.4826 44.9613 20.9938 44.3187C21.4858 43.7003 21.4816 42.7993 20.9085 42.2409C20.2618 41.6109 19.5574 41.0419 18.8843 40.4518C18.1443 40.93 17.6399 40.9317 17.2793 40.4713C16.929 40.0241 17.0199 39.6016 17.6067 38.9506Z" fill="#307BC4"/>
<path d="M13.19 29.0551C13.7088 23.3533 16.2729 18.8882 21.0959 15.8057C21.737 15.3959 22.2999 15.465 22.6087 15.9652C22.9229 16.4742 22.748 17.0053 22.0919 17.4205C18.5576 19.6567 16.3099 22.8297 15.4082 26.9559C15.2142 27.8434 15.2011 28.7707 15.0843 29.677C15.0454 29.9787 15.0283 30.3561 14.8466 30.5468C14.6394 30.7641 14.2339 30.9472 13.9617 30.8945C13.6914 30.8422 13.3742 30.5192 13.2693 30.2405C13.1398 29.8969 13.2085 29.4764 13.19 29.0551Z" fill="#307BC4"/>
<path d="M26.0754 13.6043C26.0621 11.6841 27.6082 10.1037 29.5126 10.0909C31.4 10.0782 32.9516 11.6429 32.9745 13.582C32.9969 15.4856 31.4395 17.0818 29.537 17.1053C27.6734 17.1283 26.0888 15.5256 26.0754 13.6043ZM29.519 15.1676C30.3924 15.1638 31.1107 14.4306 31.0894 13.5648C31.0682 12.704 30.3598 11.9927 29.5306 11.9996C28.6754 12.0067 27.9454 12.7589 27.9589 13.619C27.9725 14.4819 28.667 15.1713 29.519 15.1676Z" fill="#307BC4"/>
<path d="M17.0296 16.1684C16.8273 16.5254 16.73 16.8137 16.5412 17.0125C14.3538 19.3154 12.8151 21.9917 11.9573 25.0742C11.7753 25.7283 11.2788 26.0346 10.7608 25.8834C10.2051 25.7213 9.96327 25.2024 10.1579 24.5086C11.1013 21.1452 12.7774 18.2106 15.1784 15.7024C15.5006 15.3658 15.8964 15.1647 16.3102 15.3927C16.5937 15.549 16.7795 15.8879 17.0296 16.1684Z" fill="#307BC4"/>
<path d="M30.441 46.5653C30.043 46.5653 29.7136 46.5982 29.3933 46.5576C28.9131 46.4967 28.6317 46.1834 28.6084 45.6946C28.5838 45.1796 28.8416 44.8126 29.3477 44.7366C29.9724 44.6429 30.6087 44.6329 31.2378 44.5648C33.0545 44.3682 34.7588 43.8027 36.3682 42.9303C37.1867 42.4867 37.7348 42.5421 38.0357 43.0882C38.3509 43.6601 38.0935 44.1651 37.2456 44.6249C35.0955 45.7907 32.8034 46.4387 30.441 46.5653Z" fill="#307BC4"/>
<path d="M23.5438 10.5606C24.0479 10.5545 24.4546 10.9492 24.4731 11.4623C24.4925 12.0033 24.0904 12.436 23.5637 12.441C23.0462 12.4459 22.6079 12.0008 22.6201 11.4825C22.6318 10.9842 23.0502 10.5666 23.5438 10.5606Z" fill="#307BC4"/>
<path d="M26.6262 49.232C26.6158 49.7486 26.1571 50.1826 25.6481 50.1574C25.1474 50.1327 24.7656 49.7139 24.7736 49.198C24.7819 48.6581 25.2052 48.2553 25.7386 48.2796C26.2378 48.3024 26.6363 48.7299 26.6262 49.232Z" fill="#307BC4"/>
</g>
<defs>
<clipPath id="clip0_662_2668">
<rect width="59.0625" height="60" fill="white"/>
</clipPath>
</defs>
</svg>
