<svg width="33" height="33" viewBox="0 0 33 33" fill="none" xmlns="http://www.w3.org/2000/svg">
<path d="M16.25 0C13.0361 0 9.89429 0.953046 7.22199 2.73862C4.54969 4.52419 2.46689 7.06209 1.23696 10.0314C0.00704087 13.0007 -0.314763 16.268 0.312247 19.4202C0.939256 22.5724 2.48692 25.4679 4.75952 27.7405C7.03212 30.0131 9.9276 31.5607 13.0798 32.1878C16.232 32.8148 19.4993 32.493 22.4686 31.263C25.4379 30.0331 27.9758 27.9503 29.7614 25.278C31.547 22.6057 32.5 19.4639 32.5 16.25C32.4955 11.9416 30.7819 7.81102 27.7355 4.76454C24.689 1.71806 20.5584 0.00454972 16.25 0ZM23.3844 17.1344L18.3844 22.1344C18.1498 22.3689 17.8317 22.5007 17.5 22.5007C17.1683 22.5007 16.8502 22.3689 16.6156 22.1344C16.3811 21.8998 16.2493 21.5817 16.2493 21.25C16.2493 20.9183 16.3811 20.6002 16.6156 20.3656L19.4828 17.5H10C9.66849 17.5 9.35054 17.3683 9.11612 17.1339C8.8817 16.8995 8.75001 16.5815 8.75001 16.25C8.75001 15.9185 8.8817 15.6005 9.11612 15.3661C9.35054 15.1317 9.66849 15 10 15H19.4828L16.6156 12.1344C16.3811 11.8998 16.2493 11.5817 16.2493 11.25C16.2493 10.9183 16.3811 10.6002 16.6156 10.3656C16.8502 10.1311 17.1683 9.9993 17.5 9.9993C17.8317 9.9993 18.1498 10.1311 18.3844 10.3656L23.3844 15.3656C23.5006 15.4817 23.5928 15.6196 23.6557 15.7713C23.7186 15.9231 23.751 16.0857 23.751 16.25C23.751 16.4143 23.7186 16.5769 23.6557 16.7287C23.5928 16.8804 23.5006 17.0183 23.3844 17.1344Z" fill="#307BC4"/>
</svg>
