<svg width="63" height="65" viewBox="0 0 63 65" fill="none" xmlns="http://www.w3.org/2000/svg">
<g clip-path="url(#clip0_662_2828)">
<path d="M61.8041 1.69714e-06C60.8194 2.07584 59.8347 4.15168 58.8009 6.33093H62.9469C62.9646 6.37839 62.9823 6.42585 63 6.47331C58.7432 10.4118 54.4865 14.3502 50.0828 18.4247C50.539 15.108 50.9684 11.9865 51.4108 8.77131H48.573C48.9224 5.78403 49.2607 2.89201 49.599 0C53.6674 0 57.7357 1.69714e-06 61.8041 1.69714e-06ZM52.7359 13.3411C54.6096 11.6077 56.3483 9.99915 58.2198 8.26785H55.7599C56.7781 6.10445 57.7508 4.03767 58.7316 1.95385H51.3065C51.119 3.58928 50.9369 5.17745 50.7465 6.83826H53.6217C53.3284 8.99093 53.0454 11.0692 52.7359 13.3411Z" fill="#307BC4"/>
<path d="M13.4922 0C13.8305 2.89186 14.1687 5.78372 14.5153 8.74734H11.6775C12.1183 11.9508 12.5487 15.0787 13.0081 18.4167C8.62126 14.3601 4.36646 10.4255 0 6.3877H4.31521C3.2678 4.17821 2.27745 2.08911 1.2871 0C5.35547 0 9.42385 0 13.4922 0ZM11.7841 1.95265H4.3574C5.35376 4.06787 6.32031 6.11979 7.3329 8.26946H4.8758C6.74559 9.99823 8.48475 11.6062 10.3549 13.3353C10.046 11.0677 9.76283 8.98938 9.46957 6.83674H12.3443C12.1539 5.17644 11.9717 3.58825 11.7841 1.95265Z" fill="#307BC4"/>
<path d="M25.0403 6.68646C24.8274 6.05795 24.6392 5.50248 24.3971 4.78794C25.799 4.5079 27.1442 4.1466 28.513 3.98427C31.7584 3.59941 34.9804 3.77125 38.1324 4.71219C39.7466 5.19407 41.2579 5.88365 42.5607 6.98013C43.7508 7.98179 44.5342 9.22209 44.8659 10.7507C44.9116 10.961 45.0653 11.2138 45.2443 11.319C46.9533 12.3233 47.7716 13.8247 47.7795 15.7794C47.7907 18.5318 47.7902 21.2844 47.7742 24.0367C47.7718 24.4384 47.8668 24.6821 48.2436 24.8863C49.0327 25.3139 49.5625 26.0057 49.6051 26.9041C49.6589 28.039 49.7249 29.2079 49.5204 30.3131C49.1223 32.4644 47.1735 33.964 44.963 34.0248C44.6289 34.034 44.2943 34.0261 44.054 34.0261C43.7197 35.2646 43.4931 36.4501 43.0788 37.5659C42.2324 39.8453 40.7585 41.6815 38.7831 43.1013C38.479 43.3198 38.4534 43.5016 38.4947 43.8727C38.6449 45.2231 39.3383 45.8747 40.6487 46.3212C43.9855 47.4582 47.2659 48.7656 50.5434 50.0688C52.2839 50.7608 53.8745 51.7289 55.1584 53.1353C56.2571 54.3389 56.8952 55.7611 56.9347 57.3753C56.9964 59.8925 56.9511 62.4124 56.9511 64.9858H51.2709V63.1583H55.0321V62.4931C55.0321 61.0745 55.0037 59.6552 55.0388 58.2375C55.0915 56.1053 54.2205 54.4547 52.4584 53.3061C51.5419 52.7086 50.5738 52.1571 49.5644 51.7414C47.3014 50.8094 44.998 49.9754 42.7265 49.1074C40.7559 54.7602 36.9554 57.8939 30.9016 57.7616C26.7411 57.6707 22.0304 54.8207 20.414 49.1129C19.4692 49.4658 18.5164 49.7869 17.5915 50.1742C15.4512 51.0704 13.2824 51.914 11.2065 52.9428C9.73363 53.6727 8.63065 54.8657 8.22754 56.5514C8.15915 56.8374 8.10641 57.1351 8.10471 57.4277C8.0938 59.3064 8.09914 61.1852 8.09914 63.1147H49.2799V64.9999H6.21795C6.1936 64.9641 6.15026 64.9301 6.15053 64.8965C6.17251 62.189 6.09448 59.4754 6.25503 56.7759C6.38884 54.5259 7.80692 52.9535 9.58049 51.6928C11.5533 50.2906 13.8215 49.5175 16.0564 48.6768C18.5682 47.732 21.0827 46.7943 23.6 45.8645C23.9429 45.7378 24.0963 45.5373 24.2473 45.1879C24.7746 43.9676 24.525 43.2109 23.4162 42.3244C20.8827 40.2987 19.5474 37.519 19.2099 34.2807C19.2036 34.2209 19.1774 34.1631 19.1303 33.9997C18.6723 33.9997 18.184 34.0541 17.7114 33.9906C15.3292 33.6706 13.71 32.043 13.4575 29.6523C13.3648 28.7749 13.4051 27.8759 13.4649 26.9921C13.5293 26.0397 14.0484 25.3133 14.8801 24.8664C15.2477 24.6688 15.3171 24.4357 15.3153 24.0647C15.3027 21.4182 15.3328 18.7712 15.301 16.125C15.2755 14.0006 16.0282 12.3418 17.9347 11.274C18.0924 11.1857 18.1945 10.9196 18.2378 10.7179C18.7572 8.30055 20.3655 6.8187 22.494 5.68778C22.7932 6.26916 23.0696 6.80625 23.3516 7.35437C22.8855 7.66919 22.4568 7.9351 22.0538 8.23546C20.7719 9.19074 20.0086 10.4248 20.0965 12.0732C20.1193 12.5021 19.9469 12.6374 19.5534 12.7449C18.0153 13.1649 17.2762 14.1567 17.2722 15.7516C17.2656 18.4406 17.2698 21.1295 17.2713 23.8185C17.2714 24.0063 17.2867 24.1942 17.2968 24.4226H19.1228C19.1228 24.0236 19.1458 23.6303 19.1192 23.2404C18.8463 19.2365 23.633 15.3719 28.025 17.5099C28.709 17.8429 29.3868 18.189 30.0625 18.5385C31.0582 19.0537 32.0464 19.0465 33.0408 18.5335C33.7356 18.175 34.4308 17.8159 35.1377 17.482C39.8249 15.2672 44.256 19.779 43.973 23.2383C43.9422 23.6141 43.9688 23.9944 43.9688 24.4185H45.8211C45.8211 23.8565 45.8211 23.3303 45.8211 22.8041C45.821 20.4539 45.8262 18.1037 45.8189 15.7536C45.814 14.155 45.0757 13.18 43.5414 12.7376C43.2493 12.6533 42.973 12.6316 42.9965 12.2013C43.1017 10.277 42.0746 8.96323 40.5971 7.93154C38.9268 6.76526 37.0109 6.24766 35.0262 5.96765C31.6747 5.49481 28.361 5.67217 25.0403 6.68646ZM21.0843 28.3238H21.0888C21.0888 29.9535 21.0651 31.5835 21.0931 33.2127C21.1876 38.7142 25.3663 43.0988 30.8593 43.4823C36.7637 43.8946 41.8712 39.2914 41.9858 33.3793C42.0539 29.8673 42.0235 26.3528 41.9984 22.8396C41.983 20.6889 39.3706 18.4583 37.2705 18.8931C36.2188 19.1109 35.2014 19.6077 34.2371 20.1099C32.4162 21.0582 30.6505 21.086 28.8521 20.0954C28.2051 19.739 27.5487 19.3823 26.8603 19.1215C24.1037 18.0773 21.0928 20.1727 21.0851 23.1173C21.0806 24.8528 21.0843 26.5883 21.0843 28.3238ZM26.4009 44.341C26.2303 45.2097 25.9172 46.0284 25.9399 46.8377C26.0032 49.0891 27.5999 51.0583 29.7728 51.7756C31.9263 52.4865 34.3934 51.8391 35.8154 50.1016C37.5423 47.9916 37.436 46.3326 36.5498 44.4092C33.2109 45.8026 29.8638 45.8145 26.4009 44.341ZM39.0458 47.7416C38.6599 49.5167 37.8351 51.0124 36.4657 52.1707C35.0939 53.331 33.5 54.0058 31.7002 53.9701C27.5681 53.8883 25.1172 51.6443 23.9985 47.7639C23.4117 47.9884 22.8463 48.2047 22.2903 48.4174C23.3389 52.9406 27.4954 56.1405 31.8998 55.8698C36.3322 55.5973 40.3471 52.2152 40.746 48.388C40.2055 48.1825 39.657 47.974 39.0458 47.7416ZM19.094 26.4091C18.1111 26.4091 17.2033 26.3961 16.2961 26.4138C15.7208 26.425 15.3912 26.7458 15.3734 27.3245C15.3533 27.9794 15.351 28.6358 15.3698 29.2907C15.4251 31.2166 17.1939 32.4979 19.094 31.9794V26.4091ZM43.9986 32.098C44.5 32.0743 44.9422 32.0841 45.3757 32.027C46.5052 31.8783 47.5471 30.9177 47.6719 29.7988C47.7674 28.9423 47.7286 28.0675 47.7021 27.2023C47.6882 26.7461 47.3711 26.4435 46.9249 26.427C45.96 26.3916 44.9928 26.4161 43.9986 26.4161L43.9986 32.098Z" fill="#307BC4"/>
<path d="M9.56705 36.5803C8.35563 34.1753 5.92848 33.82 2.47838 35.5285C2.14055 35.0371 1.7978 34.5385 1.41989 33.9888C2.62788 33.1613 3.9235 32.6525 5.3511 32.534C8.14112 32.3025 10.1756 33.4514 11.4622 35.9413C11.5502 36.1118 11.7699 36.2915 11.9535 36.3237C14.0621 36.6941 15.6707 38.3375 16.0322 40.4647C16.283 41.9399 16.0544 43.3612 15.6882 44.8487C15.0788 44.6895 14.4975 44.5375 13.8737 44.3744C14.2246 42.1493 14.7991 39.8744 12.2494 38.3114C12.4365 39.8967 12.4421 41.3632 11.8196 42.7057C11.42 43.5675 10.8872 44.4182 10.2313 45.0976C9.44195 45.9153 8.37026 46.1809 7.24782 45.7417C6.08487 45.2866 5.52273 44.3365 5.37021 43.1589C5.03176 40.5457 6.5049 38.0185 9.00392 36.8368C9.1738 36.7565 9.34589 36.6809 9.56705 36.5803ZM10.2779 38.4977C8.16673 38.9324 6.84283 41.5113 7.35305 43.2227C7.59722 44.0416 8.25791 44.2544 8.92037 43.6999C9.28118 43.398 9.59808 42.9908 9.80472 42.5676C10.435 41.2768 10.5816 39.9095 10.2779 38.4977Z" fill="#307BC4"/>
<path d="M50.752 38.381C48.281 39.8481 48.8673 42.1244 49.2153 44.3712C48.615 44.5312 48.0337 44.6862 47.3973 44.8558C46.8332 42.4487 46.5167 40.1337 48.1728 38.0415C48.9243 37.0921 49.9017 36.5202 51.1105 36.3202C51.321 36.2854 51.5637 36.0541 51.6712 35.8502C52.6309 34.0299 54.0705 32.8353 56.1315 32.5584C58.1177 32.2916 59.9372 32.8477 61.6777 33.973C61.3167 34.5048 60.9688 35.0173 60.6241 35.525C57.0864 33.8373 54.8279 34.159 53.5205 36.5629C53.704 36.652 53.8842 36.7424 54.0669 36.8275C56.5207 37.9696 57.984 40.4125 57.7331 43.0133C57.6138 44.2496 57.0681 45.2501 55.8588 45.7318C54.6325 46.2202 53.5625 45.8149 52.6619 44.9608C51.3426 43.7098 50.8777 42.0774 50.7588 40.326C50.7162 39.6986 50.752 39.0659 50.752 38.381ZM52.8214 38.5005C52.7734 38.9423 52.696 39.3399 52.6932 39.7379C52.6829 41.1878 52.8782 42.5841 54.0441 43.6183C54.7956 44.2848 55.4958 44.0648 55.77 43.1164C56.2704 41.3853 54.7051 38.8744 52.8214 38.5005Z" fill="#307BC4"/>
<path d="M34.7969 8.26294H36.6566V10.1144H34.7969V8.26294Z" fill="#307BC4"/>
<path d="M38.603 10.1787H40.4799V12.0298H38.603V10.1787Z" fill="#307BC4"/>
<path d="M34.1569 39.5196C32.507 37.2017 30.0678 37.7435 28.9618 39.5248C28.4293 39.255 27.8912 38.9824 27.3583 38.7124C27.8145 37.3103 29.5582 36.1391 31.2436 36.0729C33.2621 35.9936 35.0686 37.029 35.7529 38.6971C35.222 38.9707 34.6866 39.2466 34.1569 39.5196Z" fill="#307BC4"/>
<path d="M37.768 30.1979C38.3231 30.5747 38.8437 30.9281 39.4089 31.3117C39.0531 31.8455 38.7165 32.3505 38.3463 32.906C36.9927 32.0041 35.6646 31.1192 34.2787 30.1958C35.6656 29.2726 36.9811 28.3969 38.346 27.4883C38.7085 28.0318 39.0433 28.5339 39.4053 29.0769C38.8544 29.4541 38.3366 29.8086 37.768 30.1979Z" fill="#307BC4"/>
<path d="M28.8178 30.1951C27.4397 31.1148 26.1252 31.992 24.7583 32.9042C24.4028 32.3801 24.0647 31.8818 23.6837 31.3201C24.237 30.9435 24.7666 30.583 25.3371 30.1947C24.7574 29.8034 24.2367 29.4519 23.6847 29.0792C24.0506 28.5313 24.3857 28.0297 24.7491 27.4856C26.1161 28.3959 27.4305 29.2713 28.8178 30.1951Z" fill="#307BC4"/>
</g>
<defs>
<clipPath id="clip0_662_2828">
<rect width="63" height="65" fill="white"/>
</clipPath>
</defs>
</svg>
