<svg width="57" height="57" viewBox="0 0 57 57" fill="none" xmlns="http://www.w3.org/2000/svg">
<g clip-path="url(#clip0_763_548)">
<path d="M26.2812 10.8L28.4999 12.081" stroke="#307BC4" stroke-miterlimit="10" stroke-linecap="round" stroke-linejoin="round"/>
<circle cx="28.4999" cy="6.68286" r="0.834961" fill="#307BC4"/>
<circle cx="25.8009" cy="7.40601" r="0.834961" fill="#307BC4"/>
<circle cx="23.8248" cy="9.38184" r="0.834961" fill="#307BC4"/>
<circle cx="31.1989" cy="7.40601" r="0.834961" fill="#307BC4"/>
<circle cx="33.1747" cy="9.38184" r="0.834961" fill="#307BC4"/>
<path d="M26.8132 40.4243V43.6895L25.1878 42.0641C24.5287 41.4051 23.4611 41.4051 22.802 42.0641C22.4725 42.3937 22.3077 42.8256 22.3077 43.2576C22.3077 43.6884 22.4725 44.1204 22.802 44.4499L27.3075 48.9542C27.9654 49.6133 29.0342 49.6133 29.6921 48.9542L34.1976 44.4499C34.8566 43.7908 34.8566 42.7232 34.1976 42.0641C33.5385 41.4051 32.4709 41.4051 31.8118 42.0641L30.1864 43.6895V33.6722C30.1864 32.7404 29.4316 31.9856 28.4998 31.9856C28.0345 31.9856 27.6125 32.1737 27.3075 32.4799C27.0013 32.7849 26.8132 33.2069 26.8132 33.6722V36.5278" stroke="#307BC4" stroke-width="1.5" stroke-miterlimit="10" stroke-linecap="round" stroke-linejoin="round"/>
<path d="M46.103 33.3326C45.4443 32.6738 44.3762 32.6738 43.7174 33.3326L42.0923 34.9576V24.941C42.0923 24.0094 41.3371 23.2542 40.4055 23.2542C39.4739 23.2542 38.7186 24.0094 38.7186 24.941V34.9576L37.0936 33.3326C36.4348 32.6738 35.3668 32.6738 34.7079 33.3326C34.0492 33.9913 34.0492 35.0594 34.7079 35.7182L39.2127 40.223C39.8714 40.8817 40.9395 40.8817 41.5983 40.223L46.1031 35.7182C46.7619 35.0594 46.7619 33.9913 46.103 33.3326Z" stroke="#307BC4" stroke-width="1.5" stroke-miterlimit="10" stroke-linecap="round" stroke-linejoin="round"/>
<path d="M10.8967 33.3326C11.5554 32.6738 12.6235 32.6738 13.2824 33.3326L14.9074 34.9576V24.941C14.9074 24.0094 15.6627 23.2542 16.5943 23.2542C17.5259 23.2542 18.2811 24.0094 18.2811 24.941V34.9576L19.9062 33.3326C20.5649 32.6738 21.633 32.6738 22.2918 33.3326C22.9505 33.9913 22.9505 35.0594 22.2918 35.7182L17.787 40.223C17.1283 40.8817 16.0602 40.8817 15.4014 40.223L10.8967 35.7182C10.2379 35.0594 10.2379 33.9913 10.8967 33.3326Z" stroke="#307BC4" stroke-width="1.5" stroke-miterlimit="10" stroke-linecap="round" stroke-linejoin="round"/>
<path d="M46.6498 9.83139H51.0873C53.787 9.83139 55.8789 12.1927 55.5538 14.8723L51.0216 52.2084C50.7477 54.4673 48.8318 56.165 46.5562 56.165H10.4436C8.16808 56.165 6.25212 54.4673 5.97825 52.2084L1.44608 14.8723C1.12101 12.1927 3.21286 9.83139 5.91257 9.83139H17.4796C18.5216 4.69805 23.0593 0.834961 28.4999 0.834961C33.9405 0.834961 38.4783 4.69805 39.5203 9.83139H42.7533" stroke="#307BC4" stroke-width="1.5" stroke-miterlimit="10" stroke-linecap="round" stroke-linejoin="round"/>
<path d="M18.5428 52.7919H46.5563C47.1241 52.7919 47.605 52.3666 47.6729 51.8022L52.204 14.466C52.2574 14.0285 52.0548 13.7257 51.929 13.5843C51.8043 13.4429 51.5282 13.2058 51.0874 13.2058H41.964C40.9754 13.2058 40.1004 13.8738 39.8677 14.8357C38.6264 19.9601 34.0007 23.7764 28.5 23.7764C22.9993 23.7764 18.3736 19.9601 17.1323 14.8357C16.8996 13.8738 16.0246 13.2058 15.036 13.2058H5.91264C5.47178 13.2058 5.19569 13.4429 5.071 13.5843C4.9452 13.7257 4.74258 14.0285 4.79602 14.466L9.32707 51.8022C9.39498 52.3666 9.87592 52.7919 10.4437 52.7919H14.6463" stroke="#307BC4" stroke-width="1.5" stroke-miterlimit="10" stroke-linecap="round" stroke-linejoin="round"/>
<path d="M28.4999 20.4028C33.096 20.4028 36.8219 16.6769 36.8219 12.0808C36.8219 7.48467 33.096 3.75879 28.4999 3.75879C23.9037 3.75879 20.1779 7.48467 20.1779 12.0808C20.1779 16.6769 23.9037 20.4028 28.4999 20.4028Z" stroke="#307BC4" stroke-width="1.5" stroke-miterlimit="10" stroke-linecap="round" stroke-linejoin="round"/>
<path d="M25.126 15.0527H31.8736" stroke="#307BC4" stroke-miterlimit="10" stroke-linecap="round" stroke-linejoin="round"/>
</g>
<defs>
<clipPath id="clip0_763_548">
<rect width="57" height="57" fill="white"/>
</clipPath>
</defs>
</svg>
